<svg width="428" height="286" viewBox="0 0 428 286" fill="none" xmlns="http://www.w3.org/2000/svg">
<g clip-path="url(#clip0_19_79)">
<path d="M340.959 126.568L342.229 116.41C342.681 112.8 344.552 109.517 347.43 107.283C350.308 105.048 353.959 104.046 357.578 104.497C361.197 104.947 364.489 106.813 366.728 109.684C368.968 112.555 369.973 116.196 369.521 119.806L368.251 129.964C368.19 130.449 367.938 130.889 367.552 131.189C367.165 131.489 366.675 131.624 366.189 131.564L342.563 128.624C342.077 128.563 341.635 128.312 341.335 127.927C341.034 127.541 340.899 127.052 340.959 126.568V126.568Z" fill="#2F2E41"/>
<path d="M352.276 129.598C357.844 129.598 362.358 125.096 362.358 119.541C362.358 113.987 357.844 109.485 352.276 109.485C346.708 109.485 342.193 113.987 342.193 119.541C342.193 125.096 346.708 129.598 352.276 129.598Z" fill="#FFB8B8"/>
<path d="M338.899 116.821C339.26 113.966 340.74 111.371 343.016 109.605C345.293 107.838 348.178 107.044 351.041 107.397L353.078 107.65C355.939 108.01 358.541 109.486 360.312 111.757C362.083 114.027 362.879 116.906 362.525 119.761L362.5 119.964L358.196 119.428L357.24 115.145L356.434 119.209L354.21 118.932L353.728 116.771L353.321 118.822L338.874 117.024L338.899 116.821Z" fill="#2F2E41"/>
<path d="M302.963 155.416C303.271 156.019 303.708 156.548 304.244 156.965C304.779 157.381 305.399 157.676 306.061 157.828C306.723 157.98 307.41 157.985 308.074 157.843C308.737 157.701 309.362 157.416 309.904 157.008L319.061 162.358L323.679 157.601L310.64 150.225C309.891 149.363 308.852 148.805 307.719 148.657C306.585 148.508 305.437 148.78 304.49 149.419C303.544 150.059 302.866 151.023 302.585 152.128C302.303 153.233 302.438 154.403 302.963 155.416V155.416Z" fill="#FFB8B8"/>
<path d="M332.977 165.03C326.222 165.03 314.336 162.014 313.677 161.846L313.47 161.793L315.34 152.345L333.496 155.922L343.359 142.068L354.683 140.92L354.367 141.335C354.219 141.528 339.622 160.694 337.351 163.91C336.777 164.721 335.14 165.03 332.977 165.03Z" fill="white"/>
<path d="M334.788 200.49L334.518 200.361C334.46 200.334 328.721 197.549 325.749 192.114C322.79 186.704 336.639 163.754 337.608 162.162L337.622 154.874L342.604 141.458L348.957 137.876L343.502 150.571L334.788 200.49Z" fill="white"/>
<path d="M328.423 278.822L322.351 278.821L319.462 255.459L328.424 255.46L328.423 278.822Z" fill="#FFB8B8"/>
<path d="M329.971 284.693L310.392 284.692V284.445C310.392 282.429 311.195 280.496 312.624 279.07C314.053 277.645 315.992 276.844 318.013 276.844H318.013L329.972 276.844L329.971 284.693Z" fill="#2F2E41"/>
<path d="M393.645 273.514L387.875 275.4L377.837 254.097L386.353 251.313L393.645 273.514Z" fill="#FFB8B8"/>
<path d="M396.95 278.612L378.344 284.693L378.267 284.458C377.637 282.542 377.797 280.456 378.71 278.657C379.623 276.859 381.215 275.496 383.136 274.868L383.136 274.868L394.5 271.154L396.95 278.612Z" fill="#2F2E41"/>
<path d="M381.889 269.695L364.579 240.869L349.966 210.073L336.816 237.277L331.593 272.509L313.273 272.763L313.345 272.478L341.38 161.368L363.336 164.64L362.336 179.096L362.932 179.94C367.891 186.968 373.02 194.235 370.078 202.068L378.416 226.763L396.873 267.883L381.889 269.695Z" fill="black"/>
<path d="M342.383 185.449C339.201 185.449 335.571 181.825 337.455 175.639L337.333 175.551L341.856 155.618C337.908 149.988 343.113 145.341 343.6 144.925L346.084 140.465L357.045 133.532L362.591 179.493L362.509 179.571C358.504 183.394 345.052 185.449 342.383 185.449Z" fill="#7D2DE2"/>
<path d="M364.83 195.82C364.394 195.826 363.96 195.781 363.535 195.683C363.109 195.576 362.419 195.035 361.352 191.572C357.113 177.804 352.108 136.377 355.744 132.323L355.827 132.23L361.798 133.223C362.294 132.858 364.899 131.044 367.302 131.359C367.797 131.421 368.274 131.584 368.703 131.837C369.132 132.09 369.505 132.429 369.798 132.831L369.839 132.885L371.741 159.877L378.71 191.642L378.543 191.717C378.137 191.901 369.436 195.82 364.83 195.82Z" fill="white"/>
<path d="M360.814 185.27C361.493 185.247 362.158 185.076 362.764 184.77C363.369 184.463 363.899 184.027 364.318 183.494C364.736 182.96 365.032 182.342 365.185 181.682C365.338 181.022 365.343 180.337 365.202 179.675L373.942 173.67L371.58 167.482L359.356 176.135C358.256 176.445 357.308 177.148 356.693 178.109C356.078 179.07 355.837 180.222 356.017 181.348C356.197 182.474 356.785 183.496 357.669 184.218C358.553 184.941 359.672 185.315 360.814 185.27V185.27Z" fill="#FFB8B8"/>
<path d="M371.058 178.481L363.273 172.787L374.217 157.901L365.818 143.118L369.576 132.401L369.819 132.863C369.932 133.078 381.147 154.389 383.104 157.805C385.139 161.357 371.765 177.625 371.195 178.316L371.058 178.481Z" fill="white"/>
<path d="M195.93 245.478L189.304 242.695L184.758 209.563H124.226L119.299 242.56L113.371 245.517C113.087 245.658 112.86 245.891 112.726 246.177C112.591 246.464 112.558 246.787 112.631 247.095C112.703 247.403 112.878 247.677 113.127 247.874C113.376 248.07 113.684 248.177 114.001 248.177H195.384C195.709 248.177 196.024 248.065 196.275 247.859C196.527 247.654 196.7 247.368 196.764 247.05C196.828 246.733 196.78 246.403 196.628 246.116C196.476 245.829 196.23 245.604 195.93 245.478V245.478Z" fill="#E6E6E6"/>
<path d="M303.5 213.971H6.14925C4.58914 213.967 3.09412 213.347 1.99219 212.245C0.89026 211.144 0.271403 209.651 0.271393 208.095V166.271H309.378V208.095C309.378 209.651 308.759 211.144 307.657 212.245C306.555 213.347 305.06 213.967 303.5 213.971V213.971Z" fill="#CCCCCC"/>
<path d="M309.688 186.038H0V7.08347C0.00217539 5.20544 0.751101 3.40495 2.08248 2.07701C3.41385 0.749063 5.21895 0.00210621 7.10177 0H302.587C304.469 0.00210138 306.275 0.749058 307.606 2.077C308.937 3.40494 309.686 5.20543 309.688 7.08347V186.038Z" fill="#7D2DE2"/>
<path d="M291.192 173.05H18.4965C17.0449 173.048 15.6533 172.472 14.6269 171.448C13.6005 170.425 13.0231 169.037 13.0215 167.589V18.4495C13.0231 17.0016 13.6005 15.6135 14.6269 14.5897C15.6533 13.5659 17.0449 12.9899 18.4965 12.9883H291.192C292.644 12.9899 294.035 13.5659 295.062 14.5897C296.088 15.6135 296.665 17.0016 296.667 18.4495V167.589C296.665 169.037 296.088 170.425 295.062 171.448C294.035 172.472 292.644 173.048 291.192 173.05V173.05Z" fill="white"/>
<path d="M231.322 248.522H78.0904C77.9334 248.526 77.7798 248.477 77.6534 248.384C77.527 248.291 77.4349 248.16 77.3915 248.009C77.3645 247.907 77.3613 247.799 77.3823 247.695C77.4033 247.592 77.4479 247.494 77.5127 247.41C77.5775 247.326 77.6608 247.258 77.7561 247.211C77.8513 247.164 77.9561 247.14 78.0623 247.14H231.265C231.431 247.134 231.593 247.184 231.727 247.283C231.86 247.381 231.956 247.521 231.999 247.681C232.021 247.782 232.021 247.887 231.997 247.987C231.974 248.088 231.928 248.183 231.863 248.263C231.798 248.344 231.715 248.409 231.622 248.454C231.528 248.499 231.426 248.522 231.322 248.522Z" fill="#CCCCCC"/>
<path d="M288.281 37.0996H222.44V87.2726H288.281V37.0996Z" fill="#F2F2F2"/>
<path d="M285.009 39.5925H225.711V84.7794H285.009V39.5925Z" fill="white"/>
<path d="M256.402 73.11C256.409 73.1101 256.417 73.1099 256.425 73.1095C260.439 72.9001 264.222 71.1735 267.006 68.281C269.789 65.3884 271.363 61.5471 271.408 57.5381C271.453 53.5292 269.966 49.6536 267.248 46.6995C264.531 43.7455 260.787 41.9348 256.779 41.6356C256.729 41.6317 256.679 41.6381 256.633 41.6544C256.586 41.6706 256.542 41.6964 256.506 41.73C256.47 41.7631 256.44 41.8033 256.42 41.8482C256.4 41.893 256.39 41.9416 256.389 41.9907L256.044 72.7458C256.043 72.8414 256.08 72.9334 256.147 73.0017C256.214 73.07 256.306 73.1089 256.402 73.11V73.11Z" fill="#3F3D56"/>
<path d="M244.003 46.7212C244.126 46.7227 244.243 46.7728 244.329 46.8604L254.944 57.6882C254.987 57.7315 255.02 57.7829 255.043 57.8392C255.066 57.8956 255.077 57.9559 255.076 58.0166L254.911 72.7331C254.91 72.7962 254.897 72.8586 254.871 72.9163C254.845 72.974 254.808 73.0257 254.761 73.0682C254.714 73.1113 254.659 73.1442 254.598 73.1651C254.538 73.186 254.474 73.1943 254.411 73.1895C251.459 72.9692 248.628 71.9323 246.235 70.1954C243.842 68.4584 241.982 66.0902 240.864 63.3569C239.746 60.6236 239.414 57.6334 239.906 54.7224C240.398 51.8115 241.694 49.095 243.649 46.8783C243.691 46.8305 243.743 46.792 243.801 46.7649C243.859 46.7379 243.922 46.7231 243.985 46.7213C243.991 46.7212 243.997 46.7212 244.003 46.7212Z" fill="#E6E6E6"/>
<path d="M254.796 41.5098C254.915 41.5112 255.028 41.5575 255.114 41.6393C255.16 41.6828 255.196 41.7354 255.221 41.7937C255.245 41.852 255.257 41.9148 255.256 41.978L255.107 55.2561C255.106 55.3475 255.078 55.4366 255.026 55.512C254.974 55.5875 254.901 55.6459 254.816 55.68C254.731 55.714 254.638 55.7221 254.548 55.7033C254.458 55.6845 254.376 55.6395 254.312 55.5742L245.05 46.1256C245.006 46.0806 244.971 46.0273 244.949 45.9687C244.926 45.9101 244.915 45.8475 244.918 45.7847C244.92 45.7219 244.935 45.6603 244.962 45.6035C244.989 45.5468 245.027 45.4961 245.075 45.4545C247.769 43.0893 251.184 41.6997 254.767 41.5104C254.777 41.5099 254.787 41.5097 254.796 41.5098Z" fill="#7D2DE2"/>
<path d="M250.025 79.4877C250.018 80.0478 249.846 80.5935 249.528 81.0558C249.211 81.5181 248.764 81.8761 248.242 82.0847C247.721 82.2933 247.149 82.343 246.6 82.2275C246.05 82.1121 245.547 81.8367 245.155 81.4361C244.762 81.0356 244.497 80.5279 244.394 79.9773C244.291 79.4267 244.353 78.8579 244.574 78.3427C244.795 77.8276 245.164 77.3894 245.634 77.0834C246.104 76.7774 246.655 76.6174 247.217 76.6237C247.97 76.633 248.688 76.9397 249.214 77.4766C249.741 78.0135 250.032 78.7368 250.025 79.4877Z" fill="#7D2DE2"/>
<path d="M258.137 79.5783C258.131 80.1384 257.958 80.6841 257.641 81.1464C257.324 81.6087 256.876 81.9667 256.355 82.1753C255.834 82.3838 255.262 82.4335 254.713 82.3181C254.163 82.2027 253.66 81.9273 253.267 81.5267C252.875 81.1262 252.61 80.6185 252.507 80.0679C252.403 79.5173 252.466 78.9484 252.687 78.4333C252.907 77.9182 253.276 77.48 253.747 77.174C254.217 76.868 254.768 76.708 255.33 76.7143C256.082 76.7236 256.801 77.0303 257.327 77.5672C257.853 78.1041 258.145 78.8274 258.137 79.5783V79.5783Z" fill="#3F3D56"/>
<path d="M266.25 79.6691C266.243 80.2292 266.071 80.7749 265.754 81.2372C265.436 81.6995 264.989 82.0575 264.468 82.2661C263.946 82.4747 263.375 82.5243 262.825 82.4089C262.276 82.2935 261.773 82.0181 261.38 81.6175C260.987 81.217 260.723 80.7093 260.619 80.1587C260.516 79.6081 260.579 79.0393 260.799 78.5241C261.02 78.009 261.389 77.5708 261.859 77.2648C262.33 76.9588 262.881 76.7988 263.442 76.8051C264.195 76.8144 264.913 77.1211 265.44 77.658C265.966 78.1949 266.257 78.9182 266.25 79.6691Z" fill="#E6E6E6"/>
<path d="M287.588 95.1687H221.747V145.342H287.588V95.1687Z" fill="#F2F2F2"/>
<path d="M284.316 97.6619H225.018V142.849H284.316V97.6619Z" fill="white"/>
<path d="M235.079 112.513C236.439 112.513 237.541 111.414 237.541 110.057C237.541 108.701 236.439 107.602 235.079 107.602C233.719 107.602 232.617 108.701 232.617 110.057C232.617 111.414 233.719 112.513 235.079 112.513Z" fill="#3F3D56"/>
<path d="M274.638 108.146C274.858 108.146 275.075 108.189 275.278 108.272C275.481 108.356 275.666 108.479 275.821 108.633C275.976 108.788 276.099 108.972 276.184 109.174C276.268 109.376 276.311 109.593 276.311 109.812C276.311 110.031 276.268 110.248 276.184 110.45C276.099 110.652 275.976 110.836 275.821 110.991C275.666 111.145 275.481 111.268 275.278 111.351C275.075 111.435 274.858 111.478 274.638 111.477H248.744C248.301 111.477 247.876 111.302 247.563 110.99C247.25 110.677 247.074 110.254 247.074 109.812C247.074 109.37 247.25 108.947 247.563 108.634C247.876 108.322 248.301 108.146 248.744 108.146H274.638ZM274.638 107.739H248.744C248.471 107.738 248.2 107.791 247.947 107.895C247.695 107.999 247.465 108.152 247.272 108.345C247.079 108.537 246.925 108.766 246.821 109.018C246.716 109.27 246.662 109.539 246.662 109.812C246.662 110.084 246.716 110.354 246.821 110.606C246.925 110.858 247.079 111.087 247.272 111.279C247.465 111.472 247.695 111.624 247.947 111.728C248.2 111.832 248.471 111.886 248.744 111.885H274.638C274.912 111.886 275.182 111.832 275.435 111.728C275.687 111.624 275.917 111.472 276.11 111.279C276.304 111.087 276.457 110.858 276.562 110.606C276.666 110.354 276.72 110.084 276.72 109.812C276.72 109.539 276.666 109.27 276.562 109.018C276.457 108.766 276.304 108.537 276.11 108.345C275.917 108.152 275.687 107.999 275.435 107.895C275.182 107.791 274.912 107.738 274.638 107.739V107.739Z" fill="#3F3D56"/>
<path d="M264.421 111.885H244.928C244.376 111.885 243.848 111.667 243.458 111.278C243.068 110.889 242.849 110.362 242.849 109.812C242.849 109.262 243.068 108.735 243.458 108.346C243.848 107.957 244.376 107.739 244.928 107.739H264.421C264.972 107.739 265.501 107.957 265.891 108.346C266.281 108.735 266.5 109.262 266.5 109.812C266.5 110.362 266.281 110.889 265.891 111.278C265.501 111.667 264.972 111.885 264.421 111.885V111.885Z" fill="#7D2DE2"/>
<path d="M235.079 122.711C236.439 122.711 237.541 121.611 237.541 120.255C237.541 118.899 236.439 117.799 235.079 117.799C233.719 117.799 232.617 118.899 232.617 120.255C232.617 121.611 233.719 122.711 235.079 122.711Z" fill="#3F3D56"/>
<path d="M274.638 118.344C274.858 118.344 275.075 118.387 275.278 118.47C275.481 118.554 275.666 118.676 275.821 118.831C275.976 118.986 276.1 119.169 276.184 119.372C276.268 119.574 276.311 119.791 276.311 120.01C276.311 120.229 276.268 120.445 276.184 120.648C276.1 120.85 275.976 121.034 275.821 121.188C275.666 121.343 275.481 121.466 275.278 121.549C275.075 121.633 274.858 121.676 274.638 121.675H248.744C248.301 121.675 247.876 121.5 247.563 121.187C247.25 120.875 247.074 120.451 247.074 120.01C247.074 119.568 247.25 119.144 247.563 118.832C247.876 118.52 248.301 118.344 248.744 118.344H274.638ZM274.638 117.936H248.744C248.193 117.936 247.664 118.155 247.274 118.544C246.884 118.932 246.665 119.46 246.665 120.01C246.665 120.56 246.884 121.087 247.274 121.476C247.664 121.865 248.193 122.083 248.744 122.083H274.638C275.19 122.083 275.719 121.865 276.108 121.476C276.498 121.087 276.717 120.56 276.717 120.01C276.717 119.46 276.498 118.932 276.108 118.544C275.719 118.155 275.19 117.936 274.638 117.936Z" fill="#3F3D56"/>
<path d="M271.782 122.083H244.928C244.376 122.083 243.848 121.865 243.458 121.476C243.068 121.087 242.849 120.56 242.849 120.01C242.849 119.46 243.068 118.932 243.458 118.544C243.848 118.155 244.376 117.936 244.928 117.936H271.782C272.333 117.936 272.862 118.155 273.252 118.544C273.642 118.932 273.861 119.46 273.861 120.01C273.861 120.56 273.642 121.087 273.252 121.476C272.862 121.865 272.333 122.083 271.782 122.083Z" fill="#7D2DE2"/>
<path d="M235.079 132.909C236.439 132.909 237.541 131.809 237.541 130.453C237.541 129.097 236.439 127.997 235.079 127.997C233.719 127.997 232.617 129.097 232.617 130.453C232.617 131.809 233.719 132.909 235.079 132.909Z" fill="#3F3D56"/>
<path d="M274.638 128.542C274.858 128.542 275.075 128.584 275.278 128.668C275.481 128.751 275.666 128.874 275.821 129.029C275.976 129.183 276.1 129.367 276.184 129.569C276.268 129.772 276.311 129.988 276.311 130.207C276.311 130.426 276.268 130.643 276.184 130.845C276.1 131.048 275.976 131.231 275.821 131.386C275.666 131.541 275.481 131.663 275.278 131.747C275.075 131.83 274.858 131.873 274.638 131.873H248.744C248.301 131.873 247.876 131.697 247.563 131.385C247.25 131.073 247.074 130.649 247.074 130.207C247.074 129.766 247.25 129.342 247.563 129.03C247.876 128.717 248.301 128.542 248.744 128.542H274.638ZM274.638 128.134H248.744C248.193 128.134 247.664 128.352 247.274 128.741C246.884 129.13 246.665 129.658 246.665 130.207C246.665 130.757 246.884 131.285 247.274 131.674C247.664 132.062 248.193 132.281 248.744 132.281H274.638C275.19 132.281 275.719 132.062 276.108 131.674C276.498 131.285 276.717 130.757 276.717 130.207C276.717 129.658 276.498 129.13 276.108 128.741C275.719 128.352 275.19 128.134 274.638 128.134Z" fill="#3F3D56"/>
<path d="M255.833 132.281H244.928C244.654 132.281 244.384 132.228 244.131 132.124C243.879 132.02 243.649 131.867 243.456 131.675C243.262 131.482 243.109 131.253 243.004 131.002C242.9 130.75 242.846 130.48 242.846 130.207C242.846 129.935 242.9 129.665 243.004 129.413C243.109 129.162 243.262 128.933 243.456 128.74C243.649 128.548 243.879 128.395 244.131 128.291C244.384 128.187 244.654 128.134 244.928 128.134H255.833C256.384 128.135 256.912 128.354 257.301 128.742C257.69 129.131 257.909 129.658 257.909 130.207C257.909 130.757 257.69 131.284 257.301 131.672C256.912 132.061 256.384 132.28 255.833 132.281V132.281Z" fill="#7D2DE2"/>
<path d="M207.192 45.9763H23.2441V140.01H207.192V45.9763Z" fill="#F2F2F2"/>
<path d="M201.061 50.6487H29.3757V135.337H201.061V50.6487Z" fill="white"/>
<path d="M179.768 122.417H54.6131C54.5092 122.417 54.4096 122.376 54.3361 122.303C54.2626 122.23 54.2214 122.13 54.2214 122.027V62.1924C54.2214 62.0888 54.2626 61.9894 54.3361 61.9162C54.4095 61.8429 54.5092 61.8018 54.6131 61.8018C54.7169 61.8018 54.8166 61.8429 54.89 61.9162C54.9635 61.9894 55.0047 62.0888 55.0047 62.1924V121.636H179.768C179.872 121.636 179.972 121.677 180.045 121.75C180.119 121.824 180.16 121.923 180.16 122.027C180.16 122.13 180.119 122.23 180.045 122.303C179.972 122.376 179.872 122.417 179.768 122.417V122.417Z" fill="#3F3D56"/>
<path d="M81.3533 118.12H69.97C69.6617 118.119 69.3662 117.997 69.1482 117.78C68.9302 117.562 68.8076 117.268 68.8073 116.96V101.308C68.8076 101.001 68.9302 100.706 69.1482 100.488C69.3662 100.271 69.6617 100.149 69.97 100.148H81.3533C81.6615 100.149 81.9571 100.271 82.175 100.488C82.393 100.706 82.5156 101.001 82.516 101.308V116.96C82.5156 117.268 82.393 117.562 82.175 117.78C81.9571 117.997 81.6615 118.119 81.3533 118.12V118.12Z" fill="#7D2DE2"/>
<path d="M102.112 118.12H90.7289C90.4206 118.12 90.1251 117.997 89.9071 117.78C89.6891 117.563 89.5665 117.268 89.5662 116.96V86.4624C89.5665 86.1549 89.6891 85.8602 89.9071 85.6428C90.1251 85.4254 90.4206 85.3031 90.7289 85.3027H102.112C102.42 85.3031 102.716 85.4254 102.934 85.6428C103.152 85.8602 103.275 86.1549 103.275 86.4624V116.96C103.275 117.268 103.152 117.563 102.934 117.78C102.716 117.997 102.42 118.12 102.112 118.12V118.12Z" fill="#7D2DE2"/>
<path d="M122.871 118.12H111.488C111.18 118.119 110.884 117.997 110.666 117.78C110.448 117.562 110.326 117.268 110.325 116.96V101.308C110.326 101.001 110.448 100.706 110.666 100.488C110.884 100.271 111.18 100.149 111.488 100.148H122.871C123.179 100.149 123.475 100.271 123.693 100.488C123.911 100.706 124.034 101.001 124.034 101.308V116.96C124.034 117.268 123.911 117.562 123.693 117.78C123.475 117.997 123.179 118.119 122.871 118.12V118.12Z" fill="#7D2DE2"/>
<path d="M143.63 118.12H132.247C131.946 118.126 131.654 118.014 131.436 117.806C131.218 117.598 131.092 117.313 131.084 117.013V80.5495C131.092 80.2491 131.218 79.9639 131.436 79.7563C131.654 79.5488 131.946 79.4359 132.247 79.4424H143.63C143.931 79.4359 144.223 79.5488 144.441 79.7563C144.659 79.9639 144.785 80.2491 144.793 80.5495V117.013C144.785 117.313 144.659 117.598 144.441 117.806C144.223 118.014 143.931 118.126 143.63 118.12V118.12Z" fill="#7D2DE2"/>
<path d="M164.389 118.12H153.006C152.697 118.12 152.402 117.997 152.184 117.78C151.966 117.563 151.843 117.268 151.843 116.96V70.0537C151.843 69.7462 151.966 69.4515 152.184 69.2341C152.402 69.0167 152.697 68.8944 153.006 68.894H164.389C164.697 68.8944 164.993 69.0167 165.211 69.2341C165.429 69.4515 165.551 69.7462 165.552 70.0537V116.96C165.551 117.268 165.429 117.563 165.211 117.78C164.993 117.997 164.697 118.12 164.389 118.12V118.12Z" fill="#7D2DE2"/>
<path d="M75.6616 95.4604C76.9595 95.4604 78.0117 94.4109 78.0117 93.1163C78.0117 91.8217 76.9595 90.7722 75.6616 90.7722C74.3637 90.7722 73.3115 91.8217 73.3115 93.1163C73.3115 94.4109 74.3637 95.4604 75.6616 95.4604Z" fill="#3F3D56"/>
<path d="M96.4206 80.2238C97.7185 80.2238 98.7706 79.1744 98.7706 77.8797C98.7706 76.5851 97.7185 75.5356 96.4206 75.5356C95.1227 75.5356 94.0705 76.5851 94.0705 77.8797C94.0705 79.1744 95.1227 80.2238 96.4206 80.2238Z" fill="#3F3D56"/>
<path d="M117.18 95.4604C118.477 95.4604 119.53 94.4109 119.53 93.1163C119.53 91.8217 118.477 90.7722 117.18 90.7722C115.882 90.7722 114.829 91.8217 114.829 93.1163C114.829 94.4109 115.882 95.4604 117.18 95.4604Z" fill="#3F3D56"/>
<path d="M137.938 72.8007C139.236 72.8007 140.289 71.7512 140.289 70.4566C140.289 69.162 139.236 68.1125 137.938 68.1125C136.641 68.1125 135.588 69.162 135.588 70.4566C135.588 71.7512 136.641 72.8007 137.938 72.8007Z" fill="#3F3D56"/>
<path d="M158.697 64.2058C159.995 64.2058 161.048 63.1563 161.048 61.8617C161.048 60.5671 159.995 59.5176 158.697 59.5176C157.4 59.5176 156.347 60.5671 156.347 61.8617C156.347 63.1563 157.4 64.2058 158.697 64.2058Z" fill="#3F3D56"/>
<path d="M117.229 93.6414L96.4208 78.0954L75.8964 93.429L75.4269 92.8039L96.4208 77.1188L117.13 92.5911L137.71 70.1278L137.792 70.0943L158.551 61.7517L158.844 62.4764L138.167 70.7859L117.229 93.6414Z" fill="#3F3D56"/>
<path d="M427.546 286H254.538C254.418 286 254.302 285.952 254.217 285.867C254.132 285.782 254.084 285.667 254.084 285.547C254.084 285.427 254.132 285.312 254.217 285.227C254.302 285.142 254.418 285.094 254.538 285.094H427.546C427.666 285.094 427.782 285.142 427.867 285.227C427.952 285.312 428 285.427 428 285.547C428 285.667 427.952 285.782 427.867 285.867C427.782 285.952 427.666 286 427.546 286Z" fill="#CCCCCC"/>
</g>
<defs>
<clipPath id="clip0_19_79">
<rect width="428" height="286" fill="white"/>
</clipPath>
</defs>
</svg>
