<svg width="253" height="170" viewBox="0 0 253 170" fill="none" xmlns="http://www.w3.org/2000/svg">
<g clip-path="url(#clip0_19_79)">
<path d="M201.548 75.2324L202.299 69.1946C202.566 67.0488 203.672 65.0973 205.373 63.7693C207.075 62.4413 209.233 61.8456 211.372 62.1133C213.511 62.381 215.457 63.4901 216.781 65.1967C218.105 66.9033 218.699 69.0676 218.432 71.2133L217.681 77.2512C217.645 77.5393 217.496 77.8012 217.268 77.9795C217.039 78.1579 216.75 78.238 216.462 78.2024L202.496 76.4548C202.209 76.4185 201.948 76.2695 201.77 76.0403C201.592 75.8111 201.513 75.5206 201.548 75.2324V75.2324Z" fill="#2F2E41"/>
<path d="M208.238 77.0339C211.529 77.0339 214.198 74.3576 214.198 71.0562C214.198 67.7547 211.529 65.0784 208.238 65.0784C204.946 65.0784 202.278 67.7547 202.278 71.0562C202.278 74.3576 204.946 77.0339 208.238 77.0339Z" fill="#FFB8B8"/>
<path d="M200.331 69.439C200.544 67.7424 201.419 66.1998 202.764 65.1497C204.11 64.0995 205.816 63.6276 207.508 63.8374L208.712 63.988C210.403 64.2016 211.941 65.0795 212.988 66.429C214.035 67.7786 214.506 69.4895 214.297 71.1866L214.282 71.3073L211.737 70.989L211.173 68.4431L210.696 70.8586L209.381 70.6941L209.096 69.4096L208.855 70.6284L200.316 69.5597L200.331 69.439Z" fill="#2F2E41"/>
<path d="M179.088 92.3799C179.27 92.7386 179.529 93.0529 179.845 93.3006C180.161 93.5483 180.528 93.7235 180.919 93.8137C181.31 93.9039 181.716 93.907 182.109 93.8228C182.501 93.7385 182.871 93.569 183.191 93.3261L188.604 96.5067L191.333 93.6786L183.626 89.2948C183.184 88.7825 182.569 88.4508 181.899 88.3625C181.229 88.2742 180.55 88.4354 179.991 88.8157C179.431 89.196 179.031 89.7689 178.864 90.4258C178.698 91.0827 178.778 91.7779 179.088 92.3799V92.3799Z" fill="#FFB8B8"/>
<path d="M196.83 98.095C192.837 98.095 185.811 96.3022 185.422 96.202L185.299 96.1704L186.405 90.5547L197.137 92.6808L202.967 84.446L209.661 83.7634L209.474 84.01C209.387 84.1249 200.758 95.5176 199.415 97.4288C199.076 97.9109 198.108 98.095 196.83 98.095Z" fill="white"/>
<path d="M197.9 119.172L197.74 119.096C197.706 119.079 194.314 117.424 192.557 114.193C190.808 110.978 198.995 97.3365 199.567 96.39L199.576 92.058L202.52 84.0832L206.276 81.9541L203.052 89.5005L197.9 119.172Z" fill="white"/>
<path d="M194.138 165.733L190.548 165.733L188.841 151.847L194.138 151.847L194.138 165.733Z" fill="#FFB8B8"/>
<path d="M195.053 169.223L183.479 169.222V169.076C183.479 167.877 183.954 166.728 184.799 165.881C185.644 165.033 186.789 164.557 187.984 164.557H187.984L195.053 164.558L195.053 169.223Z" fill="#2F2E41"/>
<path d="M232.692 162.578L229.281 163.699L223.347 151.036L228.382 149.382L232.692 162.578Z" fill="#FFB8B8"/>
<path d="M234.646 165.609L223.647 169.223L223.602 169.083C223.23 167.945 223.324 166.704 223.864 165.635C224.403 164.566 225.344 163.756 226.48 163.383L226.48 163.383L233.197 161.175L234.646 165.609Z" fill="#2F2E41"/>
<path d="M225.743 160.308L215.51 143.174L206.872 124.868L199.099 141.038L196.011 161.981L185.182 162.132L185.225 161.962L201.797 95.918L214.776 97.8628L214.185 106.455L214.537 106.957C217.468 111.135 220.5 115.454 218.761 120.11L223.69 134.789L234.6 159.231L225.743 160.308Z" fill="black"/>
<path d="M202.39 110.232C200.509 110.232 198.364 108.078 199.477 104.401L199.405 104.348L202.078 92.5004C199.745 89.1535 202.821 86.3913 203.11 86.1445L204.578 83.4934L211.057 79.3721L214.335 106.692L214.287 106.738C211.919 109.01 203.967 110.232 202.39 110.232Z" fill="#7D2DE2"/>
<path d="M215.659 116.396C215.401 116.4 215.144 116.373 214.893 116.315C214.641 116.252 214.234 115.93 213.603 113.871C211.097 105.688 208.138 81.0634 210.288 78.6538L210.337 78.5985L213.867 79.1885C214.16 78.9714 215.7 77.8934 217.12 78.0809C217.413 78.1178 217.695 78.2144 217.948 78.3649C218.202 78.5153 218.422 78.7164 218.596 78.9556L218.62 78.9875L219.744 95.0319L223.864 113.913L223.765 113.958C223.525 114.067 218.382 116.396 215.659 116.396Z" fill="white"/>
<path d="M213.285 110.125C213.686 110.112 214.08 110.01 214.437 109.828C214.795 109.646 215.109 109.387 215.356 109.07C215.603 108.753 215.778 108.385 215.869 107.993C215.959 107.601 215.962 107.193 215.879 106.8L221.045 103.23L219.649 99.552L212.423 104.695C211.773 104.88 211.213 105.298 210.849 105.869C210.485 106.44 210.343 107.125 210.449 107.794C210.556 108.464 210.903 109.071 211.426 109.5C211.948 109.93 212.61 110.152 213.285 110.125V110.125Z" fill="#FFB8B8"/>
<path d="M219.341 106.09L214.738 102.705L221.208 93.8575L216.243 85.0704L218.464 78.7002L218.608 78.9745C218.675 79.1023 225.304 91.77 226.461 93.8001C227.664 95.9119 219.758 105.582 219.421 105.992L219.341 106.09Z" fill="white"/>
<path d="M115.818 145.914L111.902 144.259L109.215 124.565H73.4328L70.5203 144.179L67.016 145.936C66.8484 146.02 66.7139 146.159 66.6345 146.329C66.555 146.499 66.5352 146.692 66.5783 146.875C66.6214 147.058 66.7248 147.221 66.8718 147.337C67.0188 147.454 67.2007 147.518 67.3882 147.518H115.496C115.688 147.518 115.874 147.451 116.023 147.329C116.171 147.207 116.273 147.037 116.311 146.848C116.349 146.659 116.321 146.463 116.231 146.293C116.141 146.122 115.996 145.988 115.818 145.914V145.914Z" fill="#E6E6E6"/>
<path d="M179.405 127.186H3.63499C2.71278 127.183 1.82904 126.815 1.17766 126.16C0.526287 125.505 0.160468 124.618 0.160461 123.693V98.8325H182.88V123.693C182.88 124.618 182.514 125.505 181.863 126.16C181.211 126.815 180.327 127.183 179.405 127.186V127.186Z" fill="#CCCCCC"/>
<path d="M183.064 110.582H0V4.21045C0.00128592 3.09414 0.443992 2.02392 1.231 1.23459C2.018 0.445247 3.08504 0.00125194 4.19801 0H178.865C179.978 0.00124907 181.045 0.445244 181.832 1.23458C182.619 2.02392 183.062 3.09414 183.064 4.21045V110.582Z" fill="#7D2DE2"/>
<path d="M172.13 102.862H10.9337C10.0757 102.861 9.25303 102.518 8.6463 101.91C8.03958 101.301 7.69829 100.476 7.69733 99.6156V10.9664C7.69828 10.1058 8.03956 9.28066 8.64628 8.6721C9.25301 8.06353 10.0756 7.7212 10.9337 7.72021H172.13C172.988 7.7212 173.811 8.06353 174.417 8.6721C175.024 9.28066 175.365 10.1058 175.366 10.9664V99.6156C175.365 100.476 175.024 101.301 174.417 101.91C173.811 102.518 172.988 102.861 172.13 102.862V102.862Z" fill="white"/>
<path d="M136.739 147.723H46.1609C46.0682 147.725 45.9773 147.696 45.9026 147.641C45.8279 147.586 45.7735 147.507 45.7478 147.418C45.7318 147.357 45.7299 147.293 45.7424 147.232C45.7548 147.17 45.7812 147.112 45.8195 147.062C45.8578 147.012 45.907 146.972 45.9633 146.944C46.0196 146.916 46.0816 146.901 46.1443 146.901H136.706C136.804 146.898 136.9 146.928 136.979 146.986C137.057 147.045 137.114 147.128 137.14 147.223C137.153 147.283 137.153 147.345 137.139 147.405C137.125 147.465 137.097 147.521 137.059 147.569C137.021 147.617 136.972 147.656 136.917 147.683C136.861 147.709 136.801 147.723 136.739 147.723Z" fill="#CCCCCC"/>
<path d="M170.409 22.0522H131.489V51.8753H170.409V22.0522Z" fill="#F2F2F2"/>
<path d="M168.475 23.5342H133.423V50.3935H168.475V23.5342Z" fill="white"/>
<path d="M151.565 43.457C151.569 43.457 151.574 43.457 151.578 43.4567C153.951 43.3322 156.188 42.306 157.833 40.5866C159.478 38.8673 160.409 36.584 160.435 34.201C160.462 31.818 159.583 29.5144 157.976 27.7585C156.37 26.0026 154.157 24.9263 151.788 24.7485C151.758 24.7462 151.729 24.7499 151.701 24.7596C151.673 24.7693 151.648 24.7846 151.626 24.8046C151.605 24.8242 151.587 24.8481 151.576 24.8748C151.564 24.9015 151.557 24.9303 151.557 24.9595L151.353 43.2405C151.352 43.2973 151.374 43.3521 151.414 43.3926C151.454 43.4332 151.508 43.4564 151.565 43.457V43.457Z" fill="#3F3D56"/>
<path d="M144.235 27.7713C144.308 27.7721 144.377 27.8019 144.428 27.854L150.703 34.2901C150.728 34.3158 150.748 34.3464 150.761 34.3799C150.775 34.4134 150.782 34.4492 150.781 34.4853L150.683 43.2329C150.683 43.2704 150.675 43.3075 150.66 43.3418C150.644 43.376 150.622 43.4068 150.595 43.4321C150.567 43.4576 150.534 43.4772 150.499 43.4896C150.463 43.5021 150.425 43.507 150.388 43.5042C148.643 43.3732 146.969 42.7569 145.555 41.7244C144.14 40.692 143.041 39.2843 142.38 37.6596C141.719 36.0349 141.523 34.2575 141.814 32.5272C142.105 30.7969 142.871 29.1822 144.026 27.8646C144.051 27.8362 144.082 27.8133 144.116 27.7972C144.15 27.7812 144.187 27.7724 144.225 27.7713C144.228 27.7712 144.232 27.7712 144.235 27.7713Z" fill="#E6E6E6"/>
<path d="M150.616 24.6736C150.686 24.6744 150.753 24.702 150.803 24.7506C150.83 24.7765 150.852 24.8077 150.866 24.8424C150.881 24.877 150.888 24.9143 150.888 24.9519L150.799 32.8445C150.799 32.8988 150.782 32.9518 150.751 32.9966C150.721 33.0414 150.678 33.0762 150.627 33.0964C150.577 33.1167 150.522 33.1215 150.469 33.1103C150.416 33.0991 150.367 33.0724 150.329 33.0335L144.854 27.4172C144.828 27.3905 144.808 27.3588 144.794 27.324C144.781 27.2891 144.775 27.2519 144.776 27.2146C144.778 27.1773 144.787 27.1407 144.802 27.1069C144.818 27.0732 144.841 27.0431 144.869 27.0184C146.461 25.6125 148.48 24.7865 150.599 24.6739C150.604 24.6736 150.61 24.6735 150.616 24.6736Z" fill="#7D2DE2"/>
<path d="M147.795 47.2479C147.791 47.5808 147.689 47.9052 147.502 48.18C147.314 48.4548 147.049 48.6676 146.741 48.7916C146.433 48.9155 146.095 48.9451 145.771 48.8765C145.446 48.8078 145.148 48.6441 144.916 48.4061C144.684 48.168 144.528 47.8662 144.467 47.5389C144.405 47.2116 144.442 46.8735 144.573 46.5673C144.703 46.2611 144.921 46.0006 145.2 45.8187C145.478 45.6369 145.803 45.5418 146.135 45.5455C146.58 45.551 147.005 45.7334 147.316 46.0525C147.627 46.3716 147.799 46.8015 147.795 47.2479Z" fill="#7D2DE2"/>
<path d="M152.59 47.3018C152.587 47.6348 152.485 47.9592 152.297 48.2339C152.11 48.5087 151.845 48.7215 151.537 48.8455C151.229 48.9695 150.891 48.999 150.566 48.9304C150.241 48.8618 149.944 48.6981 149.712 48.46C149.48 48.2219 149.323 47.9202 149.262 47.5929C149.201 47.2656 149.238 46.9275 149.368 46.6213C149.499 46.3151 149.717 46.0546 149.995 45.8727C150.273 45.6908 150.599 45.5957 150.931 45.5995C151.376 45.605 151.8 45.7873 152.112 46.1065C152.423 46.4256 152.595 46.8555 152.59 47.3018V47.3018Z" fill="#3F3D56"/>
<path d="M157.386 47.3558C157.382 47.6887 157.28 48.0131 157.093 48.2879C156.905 48.5627 156.641 48.7755 156.332 48.8995C156.024 49.0234 155.686 49.053 155.362 48.9844C155.037 48.9157 154.739 48.752 154.507 48.514C154.275 48.2759 154.119 47.9741 154.058 47.6468C153.997 47.3195 154.034 46.9814 154.164 46.6752C154.294 46.369 154.513 46.1085 154.791 45.9267C155.069 45.7448 155.394 45.6497 155.726 45.6534C156.171 45.6589 156.596 45.8413 156.907 46.1604C157.218 46.4795 157.39 46.9094 157.386 47.3558Z" fill="#E6E6E6"/>
<path d="M169.999 56.5688H131.079V86.3919H169.999V56.5688Z" fill="#F2F2F2"/>
<path d="M168.065 58.0508H133.013V84.9101H168.065V58.0508Z" fill="white"/>
<path d="M138.96 66.8785C139.764 66.8785 140.416 66.2249 140.416 65.4187C140.416 64.6125 139.764 63.959 138.96 63.959C138.157 63.959 137.505 64.6125 137.505 65.4187C137.505 66.2249 138.157 66.8785 138.96 66.8785Z" fill="#3F3D56"/>
<path d="M162.345 64.2827C162.474 64.2825 162.603 64.308 162.723 64.3576C162.843 64.4073 162.952 64.4802 163.044 64.5721C163.135 64.6641 163.208 64.7733 163.258 64.8935C163.308 65.0137 163.333 65.1426 163.333 65.2727C163.333 65.4029 163.308 65.5317 163.258 65.652C163.208 65.7722 163.135 65.8814 163.044 65.9733C162.952 66.0653 162.843 66.1382 162.723 66.1878C162.603 66.2375 162.474 66.2629 162.345 66.2627H147.038C146.776 66.2627 146.525 66.1584 146.34 65.9727C146.155 65.7871 146.051 65.5353 146.051 65.2727C146.051 65.0102 146.155 64.7584 146.34 64.5727C146.525 64.387 146.776 64.2827 147.038 64.2827H162.345ZM162.345 64.0403H147.038C146.876 64.04 146.716 64.0717 146.567 64.1336C146.418 64.1954 146.282 64.2861 146.168 64.4006C146.053 64.5151 145.963 64.651 145.901 64.8007C145.839 64.9503 145.807 65.1107 145.807 65.2727C145.807 65.4347 145.839 65.5951 145.901 65.7448C145.963 65.8944 146.053 66.0304 146.168 66.1448C146.282 66.2593 146.418 66.3501 146.567 66.4119C146.716 66.4737 146.876 66.5054 147.038 66.5052H162.345C162.506 66.5054 162.666 66.4737 162.815 66.4119C162.965 66.3501 163.1 66.2593 163.215 66.1448C163.329 66.0304 163.42 65.8944 163.482 65.7448C163.543 65.5951 163.575 65.4347 163.575 65.2727C163.575 65.1107 163.543 64.9503 163.482 64.8007C163.42 64.651 163.329 64.5151 163.215 64.4006C163.1 64.2861 162.965 64.1954 162.815 64.1336C162.666 64.0717 162.506 64.04 162.345 64.0403V64.0403Z" fill="#3F3D56"/>
<path d="M156.305 66.5052H144.782C144.456 66.5052 144.144 66.3753 143.913 66.1442C143.683 65.9131 143.553 65.5996 143.553 65.2727C143.553 64.9459 143.683 64.6324 143.913 64.4013C144.144 64.1701 144.456 64.0403 144.782 64.0403H156.305C156.631 64.0403 156.943 64.1701 157.174 64.4013C157.404 64.6324 157.534 64.9459 157.534 65.2727C157.534 65.5996 157.404 65.9131 157.174 66.1442C156.943 66.3753 156.631 66.5052 156.305 66.5052V66.5052Z" fill="#7D2DE2"/>
<path d="M138.96 72.9403C139.764 72.9403 140.416 72.2867 140.416 71.4805C140.416 70.6743 139.764 70.0208 138.96 70.0208C138.157 70.0208 137.505 70.6743 137.505 71.4805C137.505 72.2867 138.157 72.9403 138.96 72.9403Z" fill="#3F3D56"/>
<path d="M162.345 70.3445C162.474 70.3443 162.603 70.3698 162.723 70.4194C162.843 70.4691 162.952 70.5419 163.044 70.6339C163.135 70.7258 163.208 70.835 163.258 70.9553C163.308 71.0755 163.333 71.2044 163.333 71.3345C163.333 71.4646 163.308 71.5935 163.258 71.7137C163.208 71.8339 163.135 71.9431 163.044 72.0351C162.952 72.127 162.843 72.1999 162.723 72.2496C162.603 72.2992 162.474 72.3247 162.345 72.3245H147.038C146.776 72.3245 146.525 72.2202 146.34 72.0345C146.155 71.8489 146.051 71.5971 146.051 71.3345C146.051 71.0719 146.155 70.8201 146.34 70.6345C146.525 70.4488 146.776 70.3445 147.038 70.3445H162.345ZM162.345 70.1021H147.038C146.712 70.1021 146.399 70.2319 146.169 70.463C145.938 70.6942 145.809 71.0076 145.809 71.3345C145.809 71.6614 145.938 71.9748 146.169 72.206C146.399 72.4371 146.712 72.5669 147.038 72.5669H162.345C162.671 72.5669 162.983 72.4371 163.214 72.206C163.444 71.9748 163.573 71.6614 163.573 71.3345C163.573 71.0076 163.444 70.6942 163.214 70.463C162.983 70.2319 162.671 70.1021 162.345 70.1021Z" fill="#3F3D56"/>
<path d="M160.656 72.5669H144.782C144.456 72.5669 144.144 72.4371 143.913 72.206C143.683 71.9748 143.553 71.6614 143.553 71.3345C143.553 71.0076 143.683 70.6941 143.913 70.463C144.144 70.2319 144.456 70.1021 144.782 70.1021H160.656C160.982 70.1021 161.295 70.2319 161.525 70.463C161.755 70.6941 161.885 71.0076 161.885 71.3345C161.885 71.6614 161.755 71.9748 161.525 72.206C161.295 72.4371 160.982 72.5669 160.656 72.5669Z" fill="#7D2DE2"/>
<path d="M138.96 79.0018C139.764 79.0018 140.416 78.3482 140.416 77.542C140.416 76.7358 139.764 76.0823 138.96 76.0823C138.157 76.0823 137.505 76.7358 137.505 77.542C137.505 78.3482 138.157 79.0018 138.96 79.0018Z" fill="#3F3D56"/>
<path d="M162.345 76.406C162.474 76.4058 162.603 76.4313 162.723 76.4809C162.843 76.5306 162.952 76.6035 163.044 76.6954C163.135 76.7874 163.208 76.8966 163.258 77.0168C163.308 77.137 163.333 77.2659 163.333 77.396C163.333 77.5262 163.308 77.655 163.258 77.7752C163.208 77.8955 163.135 78.0047 163.044 78.0966C162.952 78.1886 162.843 78.2615 162.723 78.3111C162.603 78.3608 162.474 78.3862 162.345 78.386H147.038C146.776 78.386 146.525 78.2817 146.34 78.096C146.155 77.9104 146.051 77.6586 146.051 77.396C146.051 77.1335 146.155 76.8817 146.34 76.696C146.525 76.5103 146.776 76.406 147.038 76.406H162.345ZM162.345 76.1636H147.038C146.712 76.1636 146.399 76.2934 146.169 76.5246C145.938 76.7557 145.809 77.0692 145.809 77.396C145.809 77.7229 145.938 78.0364 146.169 78.2675C146.399 78.4986 146.712 78.6285 147.038 78.6285H162.345C162.671 78.6285 162.983 78.4986 163.214 78.2675C163.444 78.0364 163.573 77.7229 163.573 77.396C163.573 77.0692 163.444 76.7557 163.214 76.5246C162.983 76.2934 162.671 76.1636 162.345 76.1636Z" fill="#3F3D56"/>
<path d="M151.228 78.6285H144.782C144.62 78.6287 144.46 78.597 144.311 78.5352C144.162 78.4733 144.026 78.3826 143.912 78.2681C143.798 78.1537 143.707 78.0177 143.645 77.8681C143.583 77.7184 143.551 77.558 143.551 77.396C143.551 77.234 143.583 77.0736 143.645 76.924C143.707 76.7743 143.798 76.6384 143.912 76.5239C144.026 76.4094 144.162 76.3187 144.311 76.2569C144.46 76.195 144.62 76.1633 144.782 76.1636H151.228C151.554 76.1641 151.866 76.2941 152.096 76.5252C152.326 76.7563 152.455 77.0695 152.455 77.396C152.455 77.7226 152.326 78.0358 152.096 78.2668C151.866 78.4979 151.554 78.628 151.228 78.6285V78.6285Z" fill="#7D2DE2"/>
<path d="M122.476 27.3286H13.7401V83.2228H122.476V27.3286Z" fill="#F2F2F2"/>
<path d="M118.851 30.106H17.3646V80.4454H118.851V30.106Z" fill="white"/>
<path d="M106.265 72.7656H32.283C32.2216 72.7656 32.1627 72.7412 32.1193 72.6976C32.0759 72.6541 32.0515 72.595 32.0515 72.5334V36.9676C32.0515 36.906 32.0758 36.8469 32.1193 36.8034C32.1627 36.7598 32.2216 36.7354 32.283 36.7354C32.3444 36.7354 32.4033 36.7598 32.4467 36.8034C32.4901 36.8469 32.5145 36.906 32.5145 36.9676V72.3012H106.265C106.326 72.3012 106.385 72.3256 106.429 72.3692C106.472 72.4127 106.496 72.4718 106.496 72.5334C106.496 72.595 106.472 72.6541 106.429 72.6976C106.385 72.7412 106.326 72.7656 106.265 72.7656V72.7656Z" fill="#3F3D56"/>
<path d="M48.0897 70.2111H41.3608C41.1785 70.2109 41.0039 70.1382 40.875 70.009C40.7462 69.8798 40.6737 69.7046 40.6735 69.5218V60.2181C40.6737 60.0354 40.7462 59.8601 40.875 59.7309C41.0039 59.6017 41.1785 59.529 41.3608 59.5288H48.0897C48.2719 59.529 48.4466 59.6017 48.5754 59.7309C48.7043 59.8601 48.7768 60.0354 48.777 60.2181V69.5218C48.7768 69.7046 48.7043 69.8798 48.5754 70.009C48.4466 70.1382 48.2719 70.2109 48.0897 70.2111V70.2111Z" fill="#7D2DE2"/>
<path d="M60.3608 70.2111H53.6318C53.4496 70.2109 53.2749 70.1383 53.1461 70.009C53.0172 69.8798 52.9447 69.7046 52.9445 69.5218V51.3936C52.9447 51.2109 53.0172 51.0357 53.1461 50.9065C53.2749 50.7772 53.4496 50.7045 53.6318 50.7043H60.3608C60.543 50.7045 60.7176 50.7772 60.8465 50.9065C60.9753 51.0357 61.0478 51.2109 61.0481 51.3936V69.5218C61.0478 69.7046 60.9753 69.8798 60.8465 70.009C60.7176 70.1383 60.543 70.2109 60.3608 70.2111V70.2111Z" fill="#7D2DE2"/>
<path d="M72.6318 70.2111H65.9029C65.7207 70.2109 65.546 70.1382 65.4171 70.009C65.2883 69.8798 65.2158 69.7046 65.2156 69.5218V60.2181C65.2158 60.0354 65.2883 59.8601 65.4171 59.7309C65.546 59.6017 65.7207 59.529 65.9029 59.5288H72.6318C72.814 59.529 72.9887 59.6017 73.1176 59.7309C73.2464 59.8601 73.3189 60.0354 73.3191 60.2181V69.5218C73.3189 69.7046 73.2464 69.8798 73.1176 70.009C72.9887 70.1382 72.814 70.2109 72.6318 70.2111V70.2111Z" fill="#7D2DE2"/>
<path d="M84.9029 70.2113H78.1739C77.9959 70.2151 77.8236 70.148 77.6947 70.0246C77.5659 69.9013 77.4911 69.7318 77.4866 69.5532V47.8792C77.4911 47.7006 77.5659 47.5311 77.6947 47.4077C77.8236 47.2844 77.9959 47.2173 78.1739 47.2211H84.9029C85.0809 47.2173 85.2532 47.2844 85.3821 47.4077C85.5109 47.5311 85.5857 47.7006 85.5902 47.8792V69.5532C85.5857 69.7318 85.5109 69.9013 85.3821 70.0246C85.2532 70.148 85.0809 70.2151 84.9029 70.2113V70.2113Z" fill="#7D2DE2"/>
<path d="M97.1739 70.2111H90.445C90.2628 70.2109 90.0881 70.1382 89.9592 70.009C89.8304 69.8798 89.7579 69.7046 89.7577 69.5218V41.6402C89.7579 41.4575 89.8304 41.2823 89.9592 41.153C90.0881 41.0238 90.2628 40.9511 90.445 40.9509H97.1739C97.3561 40.9511 97.5308 41.0238 97.6597 41.153C97.7885 41.2823 97.861 41.4575 97.8612 41.6402V69.5218C97.861 69.7046 97.7885 69.8798 97.6597 70.009C97.5308 70.1382 97.3561 70.2109 97.1739 70.2111V70.2111Z" fill="#7D2DE2"/>
<path d="M44.7252 56.7423C45.4924 56.7423 46.1144 56.1184 46.1144 55.3489C46.1144 54.5794 45.4924 53.9556 44.7252 53.9556C43.958 53.9556 43.336 54.5794 43.336 55.3489C43.336 56.1184 43.958 56.7423 44.7252 56.7423Z" fill="#3F3D56"/>
<path d="M56.9962 47.6854C57.7635 47.6854 58.3854 47.0615 58.3854 46.292C58.3854 45.5225 57.7635 44.8987 56.9962 44.8987C56.229 44.8987 55.6071 45.5225 55.6071 46.292C55.6071 47.0615 56.229 47.6854 56.9962 47.6854Z" fill="#3F3D56"/>
<path d="M69.2674 56.7423C70.0346 56.7423 70.6565 56.1184 70.6565 55.3489C70.6565 54.5794 70.0346 53.9556 69.2674 53.9556C68.5001 53.9556 67.8782 54.5794 67.8782 55.3489C67.8782 56.1184 68.5001 56.7423 69.2674 56.7423Z" fill="#3F3D56"/>
<path d="M81.5384 43.2733C82.3056 43.2733 82.9276 42.6494 82.9276 41.8799C82.9276 41.1104 82.3056 40.4866 81.5384 40.4866C80.7712 40.4866 80.1492 41.1104 80.1492 41.8799C80.1492 42.6494 80.7712 43.2733 81.5384 43.2733Z" fill="#3F3D56"/>
<path d="M93.8095 38.1644C94.5767 38.1644 95.1986 37.5405 95.1986 36.771C95.1986 36.0015 94.5767 35.3777 93.8095 35.3777C93.0423 35.3777 92.4203 36.0015 92.4203 36.771C92.4203 37.5405 93.0423 38.1644 93.8095 38.1644Z" fill="#3F3D56"/>
<path d="M69.2965 55.661L56.9964 46.4203L44.864 55.5347L44.5864 55.1632L56.9964 45.8399L69.238 55.0366L81.4031 41.6844L81.4517 41.6644L93.7229 36.7056L93.896 37.1363L81.6737 42.0756L69.2965 55.661Z" fill="#3F3D56"/>
<path d="M252.732 170H150.463C150.392 170 150.324 169.972 150.273 169.921C150.223 169.871 150.195 169.802 150.195 169.731C150.195 169.659 150.223 169.591 150.273 169.541C150.324 169.49 150.392 169.462 150.463 169.462H252.732C252.803 169.462 252.871 169.49 252.921 169.541C252.972 169.591 253 169.659 253 169.731C253 169.802 252.972 169.871 252.921 169.921C252.871 169.972 252.803 170 252.732 170Z" fill="#CCCCCC"/>
</g>
<defs>
<clipPath id="clip0_19_79">
<rect width="253" height="170" fill="white"/>
</clipPath>
</defs>
</svg>
