<svg width="32" height="44" viewBox="0 0 32 44" fill="none" xmlns="http://www.w3.org/2000/svg">
<path d="M24 28.875H26V35.75H24V28.875ZM20 22H22V35.75H20V22ZM11 35.75C9.67441 35.7478 8.40356 35.0228 7.46622 33.7339C6.52888 32.4451 6.00159 30.6977 6 28.875H8C8 29.6908 8.17595 30.4884 8.50559 31.1667C8.83524 31.8451 9.30377 32.3738 9.85195 32.686C10.4001 32.9982 11.0033 33.0799 11.5853 32.9207C12.1672 32.7616 12.7018 32.3687 13.1213 31.7918C13.5409 31.2149 13.8266 30.4799 13.9424 29.6797C14.0581 28.8796 13.9987 28.0502 13.7716 27.2964C13.5446 26.5427 13.1601 25.8984 12.6667 25.4452C12.1734 24.9919 11.5933 24.75 11 24.75V22C12.3261 22 13.5979 22.7243 14.5355 24.0136C15.4732 25.303 16 27.0516 16 28.875C16 30.6984 15.4732 32.447 14.5355 33.7364C13.5979 35.0257 12.3261 35.75 11 35.75Z" fill="white"/>
<path d="M28 2.75H4C3.46973 2.75073 2.96133 3.04069 2.58637 3.55626C2.21141 4.07183 2.00053 4.77088 2 5.5V38.5C2.00053 39.2291 2.21141 39.9282 2.58637 40.4437C2.96133 40.9593 3.46973 41.2493 4 41.25H28C28.5302 41.2489 29.0384 40.9588 29.4133 40.4433C29.7882 39.9279 29.9992 39.229 30 38.5V5.5C29.9995 4.77088 29.7886 4.07183 29.4136 3.55626C29.0387 3.04069 28.5303 2.75073 28 2.75ZM28 15.125H14V5.5H28V15.125ZM12 5.5V15.125H4V5.5H12ZM4 38.5V17.875H28L28.002 38.5H4Z" fill="white"/>
</svg>
