<svg width="34" height="40" viewBox="0 0 34 40" fill="none" xmlns="http://www.w3.org/2000/svg">
<path d="M15.762 31.9583L32.0127 15.7032C32.0858 15.6302 32.1202 15.5314 32.1116 15.4325L31.0159 2.48176C30.9858 2.14661 30.7237 1.8845 30.3885 1.85442L17.4377 0.763011C17.3389 0.754421 17.2358 0.788791 17.167 0.861841L0.916266 17.1126C0.852296 17.1772 0.816406 17.2645 0.816406 17.3554C0.816406 17.4463 0.852296 17.5336 0.916266 17.5982L15.2764 31.9583C15.4096 32.0958 15.6288 32.0958 15.762 31.9583ZM18.4518 3.95559L28.1026 4.772L28.919 14.4228L15.517 27.8204L5.04982 17.3575L18.4518 3.95559ZM21.0368 11.9577C21.2283 12.1492 21.4557 12.3011 21.706 12.4047C21.9562 12.5084 22.2245 12.5617 22.4953 12.5617C22.7662 12.5616 23.0344 12.5083 23.2846 12.4046C23.5349 12.3009 23.7622 12.149 23.9537 11.9574C24.1452 11.7659 24.2972 11.5385 24.4008 11.2883C24.5044 11.038 24.5578 10.7698 24.5577 10.4989C24.5577 10.2281 24.5044 9.9599 24.4007 9.7096C24.297 9.4594 24.1451 9.232 23.9535 9.0405C23.762 8.849 23.5346 8.6971 23.2843 8.5934C23.0341 8.4898 22.7659 8.4365 22.495 8.4365C22.2241 8.4365 21.9559 8.4899 21.7057 8.5936C21.4555 8.6972 21.2281 8.8492 21.0366 9.0407C20.8451 9.2323 20.6932 9.4597 20.5895 9.7099C20.4859 9.9602 20.4326 10.2284 20.4326 10.4992C20.4326 10.7701 20.486 11.0383 20.5896 11.2885C20.6933 11.5388 20.8453 11.7661 21.0368 11.9577ZM33.2288 21.1947L31.5272 19.4974C31.4626 19.4334 31.3753 19.3975 31.2844 19.3975C31.1935 19.3975 31.1063 19.4334 31.0416 19.4974L15.487 35.022L5.27762 24.8384C5.21302 24.7744 5.12572 24.7385 5.03482 24.7385C4.94391 24.7385 4.85666 24.7744 4.79206 24.8384L3.09049 26.5357C3.02652 26.6003 2.99063 26.6875 2.99063 26.7784C2.99063 26.8694 3.02652 26.9566 3.09049 27.0212L13.5405 37.454L15.242 39.1513C15.3752 39.2845 15.5944 39.2845 15.7276 39.1513L33.2288 21.6802C33.362 21.547 33.362 21.3279 33.2288 21.1947Z" fill="white"/>
</svg>
