<svg width="9" height="9" viewBox="0 0 29 40" fill="none" xmlns="http://www.w3.org/2000/svg">
<path d="M24.0586 26.5196V2.93572C24.0586 2.42234 23.9018 1.92998 23.6229 1.56696C23.3439 1.20394 22.9655 1 22.5709 1H2.48765C2.0931 1 1.71471 1.20394 1.43572 1.56696C1.15673 1.92998 1 2.42234 1 2.93572V36.8108C1 37.3242 1.15673 37.8166 1.43572 38.1796C1.71471 38.5426 2.0931 38.7465 2.48765 38.7465H22.5709C22.9655 38.7465 23.3439 38.5426 23.6229 38.1796C23.9018 37.8166 24.0586 37.3242 24.0586 36.8108V35.389" stroke="white" stroke-width="2" stroke-linecap="round" stroke-linejoin="round"/>
<path d="M22.2986 33.0942L10.512 17.7198V13.3402H13.9574L25.6987 28.6595M4.34717 6.80713H20.7113M4.34717 13.3402H10.512M18.9648 19.8732H20.7113M4.34717 19.8732H12.1633M4.34717 26.4063H16.984M4.34717 32.9394H20.7113M27.64 33.4088C27.8655 33.1143 27.992 32.7157 27.992 32.3001C27.992 31.8845 27.8655 31.4858 27.64 31.1914L25.6987 28.6595L22.2994 33.0942L24.2408 35.6261C24.3523 35.7714 24.4847 35.8866 24.6304 35.9653C24.7762 36.0439 24.9324 36.0844 25.0902 36.0844C25.248 36.0844 25.4042 36.0439 25.55 35.9653C25.6957 35.8866 25.8282 35.7714 25.9397 35.6261L27.64 33.4088Z" stroke="white" stroke-width="2" stroke-linecap="round" stroke-linejoin="round"/>
</svg>
