<svg width="44" height="41" viewBox="0 0 44 41" fill="none" xmlns="http://www.w3.org/2000/svg">
<path d="M43.0876 20.1709L24.3345 1.67842L23.0775 0.438251C22.7911 0.157544 22.4038 0 22.0001 0C21.5964 0 21.2091 0.157544 20.9227 0.438251L0.912616 20.1709C0.619144 20.4593 0.387209 20.8028 0.230499 21.1811C0.0737901 21.5594 -0.00451659 21.9648 0.000201167 22.3735C0.0196143 24.059 1.44162 25.4045 3.14998 25.4045H5.21262V41H38.7876V25.4045H40.8939C41.7238 25.4045 42.5052 25.0837 43.0924 24.5043C43.3816 24.2199 43.6107 23.8818 43.7665 23.5094C43.9222 23.1371 44.0016 22.738 44 22.3352C44 21.5212 43.6748 20.7502 43.0876 20.1709ZM24.7179 37.5524H19.2823V27.7843H24.7179V37.5524ZM35.2932 21.9569V37.5524H27.824V26.6351C27.824 25.5769 26.9553 24.7198 25.8827 24.7198H18.1175C17.0449 24.7198 16.1762 25.5769 16.1762 26.6351V37.5524H8.70697V21.9569H4.04783L22.0049 4.25453L23.126 5.36063L39.9572 21.9569H35.2932Z" fill="#FFFFFF"/>
</svg>
