<svg width="50" height="50" viewBox="0 0 62 88" fill="none" xmlns="http://www.w3.org/2000/svg">
<path d="M60.8957 38.078L56.4131 19.3636C55.6274 16.0987 52.3187 14.0478 49.0356 14.8536C46.148 15.5591 44.7444 17.5589 44.1756 18.9662C43.5029 20.6269 40.5005 28.152 39.7987 29.707C39.5526 30.2466 39.033 30.531 38.9273 30.5784C38.3312 30.8427 32.3647 33.3602 32.3647 33.3602V33.3712C31.187 33.9235 30.3704 35.1012 30.3704 36.4757C30.3704 38.377 31.9272 39.9192 33.8467 39.9192C34.2605 39.9192 34.6543 39.8335 35.0244 39.7023V39.7151L42.9451 36.4228C44.0316 35.916 44.5621 35.2743 45.1017 34.3392C45.3277 33.9454 46.015 32.2975 46.5746 30.9448L51.3544 50.9335L51.3489 81.9055C51.3398 84.9827 53.4654 87.4911 56.5717 87.502C59.6817 87.5129 61.9294 85.0283 61.9494 81.9456C61.9494 81.9456 61.9804 47.1144 61.9804 45.3899C61.9768 43.6709 61.2931 39.5856 60.8957 38.078Z" fill="#7D2DE2"/>
<path d="M43.5668 13.9274C47.448 13.9274 50.5943 10.8096 50.5943 6.96369C50.5943 3.11775 47.448 0 43.5668 0C39.6856 0 36.5393 3.11775 36.5393 6.96369C36.5393 10.8096 39.6856 13.9274 43.5668 13.9274Z" fill="#7D2DE2"/>
<path d="M16.6454 65.8124V73.6146C17.6571 73.4287 18.4756 72.9657 19.1119 72.2237C19.7426 71.4818 20.058 70.6141 20.058 69.6151C20.058 68.7218 19.7936 67.9507 19.265 67.3018C18.729 66.6601 17.8558 66.1642 16.6454 65.8124ZM11.8255 53.6952C11.3515 54.3333 11.1127 55.0406 11.1127 55.8135C11.1127 56.5244 11.3297 57.1771 11.7581 57.7823C12.1919 58.3911 12.8464 58.8834 13.7159 59.2552V52.3335C12.9229 52.5996 12.2904 53.0554 11.8255 53.6952ZM30.365 44.4273H30.3723L19.4801 22.5755L19.4783 22.5956C18.678 20.9404 16.979 19.7974 15.0029 19.7974H4.96391C2.224 19.7955 0 21.9977 0 24.7139V87.5019H30.9283V46.8919C30.9246 46.0096 30.7223 45.1747 30.365 44.4273ZM22.7961 74.9964C21.3195 76.6499 19.2705 77.6634 16.6509 78.0353V81.7778H13.7214V78.1356C11.3916 77.8567 9.50489 76.9944 8.04652 75.5561C6.59545 74.1141 5.66757 72.0815 5.26469 69.4547L10.533 68.8914C10.7463 69.9596 11.1492 70.8802 11.7453 71.6568C12.3341 72.4297 12.994 72.9894 13.7196 73.3357V64.9538C11.0836 64.2064 9.14577 63.0743 7.91892 61.5667C6.68478 60.0537 6.06862 58.218 6.06862 56.0559C6.06862 53.8684 6.76316 52.0309 8.16137 50.5415C9.55411 49.0558 11.4062 48.1972 13.7214 47.973V45.9914H16.6509V47.973C18.7874 48.2245 20.4918 48.9482 21.757 50.1405C23.0185 51.3308 23.826 52.9332 24.1779 54.933L19.0718 55.5929C18.76 54.0215 17.9543 52.9515 16.6509 52.3918V60.2123C19.8793 61.0818 22.0796 62.2048 23.2518 63.5829C24.4203 64.9647 25.0073 66.7348 25.0073 68.895C25.0073 71.3086 24.2708 73.3412 22.7961 74.9964Z" fill="#7D2DE2"/>
</svg>
