<svg width="69" height="40" viewBox="0 0 69 40" fill="none" xmlns="http://www.w3.org/2000/svg">
<rect width="69" height="40" rx="16" fill="white"/>
<path d="M41.7182 17.2032L40.6348 12.68C40.4449 11.8909 39.6452 11.3952 38.8516 11.59C38.1537 11.7605 37.8145 12.2438 37.677 12.584C37.5144 12.9854 36.7887 14.8042 36.6191 15.18C36.5596 15.3104 36.4341 15.3792 36.4085 15.3906C36.2644 15.4545 34.8223 16.063 34.8223 16.063V16.0656C34.5377 16.1991 34.3403 16.4837 34.3403 16.816C34.3403 17.2755 34.7166 17.6483 35.1806 17.6483C35.2806 17.6483 35.3757 17.6275 35.4652 17.5958V17.5989L37.3796 16.8032C37.6422 16.6807 37.7704 16.5256 37.9008 16.2996C37.9555 16.2044 38.1216 15.8061 38.2568 15.4792L39.4121 20.3104L39.4108 27.7962C39.4086 28.5399 39.9223 29.1462 40.6731 29.1488C41.4247 29.1514 41.968 28.5509 41.9729 27.8059C41.9729 27.8059 41.9803 19.3873 41.9803 18.9705C41.9795 18.555 41.8142 17.5676 41.7182 17.2032V17.2032Z" fill="#7D2DE2"/>
<path d="M37.5301 11.3662C38.4681 11.3662 39.2286 10.6126 39.2286 9.68309C39.2286 8.75355 38.4681 8 37.5301 8C36.592 8 35.8315 8.75355 35.8315 9.68309C35.8315 10.6126 36.592 11.3662 37.5301 11.3662Z" fill="#7D2DE2"/>
<path d="M31.0231 23.9066V25.7923C31.2677 25.7474 31.4655 25.6355 31.6193 25.4561C31.7717 25.2768 31.8479 25.0671 31.8479 24.8256C31.8479 24.6097 31.784 24.4234 31.6563 24.2665C31.5267 24.1114 31.3157 23.9916 31.0231 23.9066V23.9066ZM29.8582 20.9779C29.7436 21.1321 29.6859 21.303 29.6859 21.4899C29.6859 21.6617 29.7383 21.8194 29.8419 21.9657C29.9467 22.1129 30.1049 22.2318 30.3151 22.3217V20.6488C30.1234 20.7131 29.9705 20.8232 29.8582 20.9779V20.9779ZM34.3391 18.7379H34.3408L31.7083 13.4564L31.7078 13.4612C31.5144 13.0612 31.1038 12.7849 30.6261 12.7849H28.1998C27.5375 12.7845 27 13.3167 27 13.9732V29.1488H34.4752V19.3336C34.4743 19.1203 34.4254 18.9185 34.3391 18.7379V18.7379ZM32.5097 26.1263C32.1528 26.5259 31.6576 26.7709 31.0244 26.8608V27.7653H30.3164V26.885C29.7533 26.8176 29.2973 26.6092 28.9448 26.2616C28.5941 25.913 28.3698 25.4218 28.2725 24.7869L29.5458 24.6507C29.5973 24.9089 29.6947 25.1314 29.8388 25.3191C29.9811 25.5059 30.1406 25.6412 30.316 25.7249V23.699C29.6789 23.5184 29.2105 23.2448 28.914 22.8804C28.6157 22.5147 28.4668 22.071 28.4668 21.5485C28.4668 21.0197 28.6346 20.5756 28.9726 20.2156C29.3092 19.8566 29.7568 19.649 30.3164 19.5948V19.1159H31.0244V19.5948C31.5408 19.6556 31.9528 19.8306 32.2586 20.1187C32.5635 20.4064 32.7586 20.7937 32.8437 21.277L31.6096 21.4365C31.5342 21.0567 31.3395 20.7981 31.0244 20.6628V22.553C31.8047 22.7632 32.3366 23.0346 32.6199 23.3677C32.9023 23.7017 33.0442 24.1295 33.0442 24.6516C33.0442 25.235 32.8662 25.7262 32.5097 26.1263V26.1263Z" fill="#7D2DE2"/>
</svg>
