<svg width="98" height="98" viewBox="0 0 98 98" fill="none" xmlns="http://www.w3.org/2000/svg">
<path d="M64.9154 61.4797C67.2314 60.2355 69.8824 59.5273 72.7057 59.5273H72.7152C73.0023 59.5273 73.1363 59.1828 72.9258 58.9914C69.9897 56.3565 66.6358 54.2284 63.0014 52.6941C62.9631 52.675 62.9248 52.6654 62.8865 52.6463C68.8297 48.3301 72.6961 41.315 72.6961 33.4004C72.6961 20.2891 62.0922 9.66602 49.0096 9.66602C35.9269 9.66602 25.3326 20.2891 25.3326 33.4004C25.3326 41.315 29.199 48.3301 35.1518 52.6463C35.1135 52.6654 35.0752 52.675 35.0369 52.6941C30.759 54.5029 26.9213 57.0965 23.6195 60.4078C20.3368 63.6845 17.7234 67.569 15.925 71.8443C14.1556 76.031 13.2006 80.5166 13.1113 85.0609C13.1088 85.1631 13.1267 85.2647 13.164 85.3598C13.2013 85.4549 13.2573 85.5416 13.3287 85.6147C13.4 85.6879 13.4853 85.746 13.5795 85.7857C13.6736 85.8253 13.7748 85.8457 13.8769 85.8457H19.6096C20.0211 85.8457 20.3656 85.5107 20.3752 85.0992C20.5666 77.7109 23.5238 70.7916 28.7588 65.5471C34.166 60.1207 41.3629 57.1348 49.0191 57.1348C54.4455 57.1348 59.6517 58.6373 64.1402 61.451C64.2555 61.5234 64.3879 61.5642 64.524 61.5693C64.6601 61.5743 64.7951 61.5434 64.9154 61.4797ZM49.0191 49.8613C44.6359 49.8613 40.5111 48.1482 37.4008 45.0379C35.8704 43.5115 34.6572 41.6974 33.831 39.7001C33.0049 37.7028 32.582 35.5618 32.5869 33.4004C32.5869 29.0076 34.3 24.8732 37.4008 21.7629C40.5016 18.6525 44.6264 16.9395 49.0191 16.9395C53.4119 16.9395 57.5271 18.6525 60.6375 21.7629C62.1678 23.2893 63.381 25.1034 64.2072 27.1006C65.0334 29.0979 65.4562 31.239 65.4514 33.4004C65.4514 37.7932 63.7383 41.9275 60.6375 45.0379C57.5271 48.1482 53.4023 49.8613 49.0191 49.8613ZM84.2187 72.6387H76.1797V64.5996C76.1797 64.1785 75.8351 63.834 75.4141 63.834H70.0547C69.6336 63.834 69.2891 64.1785 69.2891 64.5996V72.6387H61.25C60.8289 72.6387 60.4844 72.9832 60.4844 73.4043V78.7637C60.4844 79.1848 60.8289 79.5293 61.25 79.5293H69.2891V87.5684C69.2891 87.9895 69.6336 88.334 70.0547 88.334H75.4141C75.8351 88.334 76.1797 87.9895 76.1797 87.5684V79.5293H84.2187C84.6398 79.5293 84.9844 79.1848 84.9844 78.7637V73.4043C84.9844 72.9832 84.6398 72.6387 84.2187 72.6387Z" fill="#7D2DE2"/>
</svg>
