<svg width="28" height="28" viewBox="0 0 28 28" fill="none" xmlns="http://www.w3.org/2000/svg">
<path d="M14 2.3335C12.8463 2.3335 11.7185 2.67561 10.7592 3.31659C9.79989 3.95756 9.05221 4.86861 8.6107 5.93451C8.16919 7.00041 8.05367 8.1733 8.27875 9.30486C8.50383 10.4364 9.0594 11.4758 9.87521 12.2916C10.691 13.1074 11.7304 13.663 12.862 13.8881C13.9935 14.1132 15.1664 13.9976 16.2323 13.5561C17.2982 13.1146 18.2093 12.3669 18.8502 11.4077C19.4912 10.4484 19.8333 9.32055 19.8333 8.16683C19.8333 6.61973 19.2188 5.136 18.1248 4.04204C17.0308 2.94808 15.5471 2.3335 14 2.3335V2.3335ZM14 11.6668C13.3078 11.6668 12.6311 11.4616 12.0555 11.077C11.4799 10.6924 11.0313 10.1458 10.7664 9.50622C10.5015 8.86668 10.4322 8.16295 10.5673 7.48401C10.7023 6.80508 11.0356 6.18144 11.5251 5.69196C12.0146 5.20247 12.6383 4.86913 13.3172 4.73408C13.9961 4.59903 14.6999 4.66834 15.3394 4.93325C15.9789 5.19816 16.5256 5.64676 16.9101 6.22233C17.2947 6.79791 17.5 7.47459 17.5 8.16683C17.5 9.09509 17.1313 9.98533 16.4749 10.6417C15.8185 11.2981 14.9283 11.6668 14 11.6668V11.6668ZM24.5 24.5002V23.3335C24.5 21.1676 23.6396 19.0903 22.108 17.5588C20.5765 16.0272 18.4993 15.1668 16.3333 15.1668H11.6667C9.50073 15.1668 7.42351 16.0272 5.89196 17.5588C4.36041 19.0903 3.5 21.1676 3.5 23.3335V24.5002H5.83333V23.3335C5.83333 21.7864 6.44791 20.3027 7.54188 19.2087C8.63584 18.1147 10.1196 17.5002 11.6667 17.5002H16.3333C17.8804 17.5002 19.3642 18.1147 20.4581 19.2087C21.5521 20.3027 22.1667 21.7864 22.1667 23.3335V24.5002H24.5Z" fill="black"/>
</svg>
