<svg width="1604" height="236" viewBox="0 0 1604 236" fill="none" xmlns="http://www.w3.org/2000/svg">
<path fill-rule="evenodd" clip-rule="evenodd" d="M0 0L24.06 11.8C48.12 23.6 97.5767 47.2 145.697 86.5333C193.817 125.867 243.273 180.933 291.393 192.733C340.85 204.533 388.97 173.067 437.09 141.6C486.547 110.133 534.667 78.6667 582.787 78.6667C632.243 78.6667 680.363 110.133 728.483 106.2C777.94 102.267 826.06 62.9333 875.517 39.3333C923.637 15.7333 971.757 7.86667 1021.21 19.6667C1069.33 31.4667 1117.45 62.9333 1166.91 94.4C1215.03 125.867 1263.15 157.333 1312.61 173.067C1360.73 188.8 1410.18 188.8 1458.3 180.933C1506.42 173.067 1555.88 157.333 1579.94 149.467L1604 141.6V236H1579.94C1555.88 236 1506.42 236 1458.3 236C1410.18 236 1360.73 236 1312.61 236C1263.15 236 1215.03 236 1166.91 236C1117.45 236 1069.33 236 1021.21 236C971.757 236 923.637 236 875.517 236C826.06 236 777.94 236 728.483 236C680.363 236 632.243 236 582.787 236C534.667 236 486.547 236 437.09 236C388.97 236 340.85 236 291.393 236C243.273 236 193.817 236 145.697 236C97.5767 236 48.12 236 24.06 236H0L0 0Z" fill="#7D2DE2"/>
</svg>
