<svg width="493" height="330" viewBox="0 0 493 330" fill="none" xmlns="http://www.w3.org/2000/svg">
<g clip-path="url(#clip0_19_79)">
<path d="M392.74 146.04L394.203 134.319C394.723 130.154 396.878 126.365 400.194 123.787C403.509 121.21 407.714 120.053 411.883 120.573C416.052 121.093 419.843 123.246 422.423 126.559C425.003 129.871 426.16 134.072 425.64 138.238L424.177 149.958C424.106 150.518 423.817 151.026 423.372 151.372C422.926 151.718 422.362 151.874 421.802 151.805L394.588 148.412C394.028 148.342 393.519 148.053 393.173 147.608C392.826 147.163 392.671 146.599 392.74 146.04V146.04Z" fill="#2F2E41"/>
<path d="M405.776 149.536C412.19 149.536 417.389 144.341 417.389 137.932C417.389 131.524 412.19 126.328 405.776 126.328C399.362 126.328 394.162 131.524 394.162 137.932C394.162 144.341 399.362 149.536 405.776 149.536Z" fill="#FFB8B8"/>
<path d="M390.368 134.793C390.783 131.5 392.488 128.505 395.11 126.467C397.732 124.428 401.056 123.512 404.353 123.919L406.699 124.212C409.995 124.627 412.992 126.331 415.032 128.95C417.072 131.57 417.989 134.891 417.582 138.186L417.552 138.42L412.595 137.802L411.494 132.86L410.565 137.549L408.003 137.23L407.448 134.736L406.979 137.102L390.338 135.028L390.368 134.793Z" fill="#2F2E41"/>
<path d="M348.974 179.326C349.329 180.022 349.832 180.632 350.449 181.113C351.065 181.594 351.78 181.934 352.542 182.109C353.304 182.284 354.096 182.29 354.86 182.127C355.625 181.963 356.345 181.634 356.969 181.163L367.517 187.337L372.835 181.847L357.816 173.337C356.954 172.343 355.757 171.699 354.452 171.527C353.146 171.356 351.823 171.669 350.733 172.407C349.643 173.145 348.862 174.257 348.538 175.532C348.214 176.808 348.369 178.157 348.974 179.326V179.326Z" fill="#FFB8B8"/>
<path d="M383.546 190.42C375.765 190.42 362.074 186.94 361.315 186.745L361.076 186.684L363.231 175.783L384.143 179.91L395.505 163.925L408.548 162.6L408.184 163.078C408.014 163.301 391.201 185.417 388.584 189.126C387.924 190.062 386.037 190.42 383.546 190.42Z" fill="white"/>
<path d="M385.632 231.334L385.32 231.186C385.254 231.154 378.644 227.942 375.22 221.67C371.812 215.427 387.764 188.947 388.88 187.11L388.896 178.701L394.635 163.22L401.953 159.087L395.67 173.736L385.632 231.334Z" fill="white"/>
<path d="M378.3 321.718L371.306 321.717L367.978 294.761L378.301 294.762L378.3 321.718Z" fill="#FFB8B8"/>
<path d="M380.084 328.492L357.531 328.491V328.206C357.531 325.88 358.456 323.649 360.102 322.004C361.748 320.359 363.981 319.435 366.309 319.435H366.31L380.084 319.436L380.084 328.492Z" fill="#2F2E41"/>
<path d="M453.428 315.593L446.782 317.769L435.219 293.189L445.028 289.977L453.428 315.593Z" fill="#FFB8B8"/>
<path d="M457.234 321.476L435.802 328.492L435.714 328.221C434.989 326.01 435.173 323.603 436.224 321.527C437.276 319.452 439.11 317.879 441.322 317.155L441.323 317.155L454.412 312.87L457.234 321.476Z" fill="#2F2E41"/>
<path d="M439.886 311.186L419.947 277.926L403.115 242.392L387.968 273.78L381.951 314.434L360.85 314.727L360.933 314.397L393.225 186.194L418.515 189.969L417.364 206.649L418.05 207.623C423.763 215.732 429.67 224.117 426.282 233.155L435.886 261.649L457.146 309.095L439.886 311.186Z" fill="black"/>
<path d="M394.38 213.979C390.716 213.979 386.534 209.798 388.704 202.66L388.563 202.559L393.773 179.56C389.226 173.063 395.221 167.701 395.783 167.222L398.644 162.075L411.269 154.075L417.657 207.107L417.563 207.197C412.949 211.608 397.454 213.979 394.38 213.979Z" fill="#7D2DE2"/>
<path d="M420.236 225.946C419.735 225.954 419.234 225.901 418.745 225.788C418.254 225.665 417.459 225.041 416.231 221.044C411.347 205.158 405.582 157.358 409.771 152.681L409.866 152.574L416.744 153.719C417.316 153.297 420.316 151.205 423.084 151.569C423.654 151.64 424.203 151.828 424.698 152.12C425.192 152.412 425.621 152.802 425.959 153.267L426.006 153.329L428.198 184.474L436.224 221.125L436.032 221.212C435.565 221.425 425.542 225.946 420.236 225.946Z" fill="white"/>
<path d="M415.611 213.773C416.393 213.747 417.159 213.55 417.856 213.196C418.553 212.842 419.165 212.339 419.646 211.724C420.128 211.108 420.469 210.395 420.645 209.633C420.821 208.872 420.828 208.081 420.665 207.317L430.733 200.388L428.011 193.248L413.931 203.232C412.664 203.591 411.573 204.401 410.864 205.51C410.155 206.619 409.878 207.949 410.085 209.248C410.292 210.547 410.969 211.726 411.988 212.56C413.006 213.393 414.295 213.825 415.611 213.773V213.773Z" fill="#FFB8B8"/>
<path d="M427.411 205.94L418.443 199.369L431.049 182.194L421.375 165.136L425.703 152.771L425.983 153.303C426.113 153.551 439.032 178.142 441.285 182.082C443.63 186.182 428.225 204.952 427.568 205.749L427.411 205.94Z" fill="white"/>
<path d="M225.686 283.244L218.053 280.033L212.817 241.803H143.092L137.417 279.877L130.589 283.288C130.262 283.452 130 283.72 129.845 284.051C129.69 284.382 129.652 284.755 129.736 285.11C129.82 285.465 130.021 285.782 130.308 286.008C130.594 286.235 130.949 286.358 131.314 286.358H225.057C225.431 286.358 225.794 286.228 226.084 285.992C226.373 285.755 226.572 285.425 226.646 285.058C226.72 284.692 226.665 284.311 226.49 283.98C226.315 283.649 226.031 283.389 225.686 283.244V283.244Z" fill="#E6E6E6"/>
<path d="M349.592 246.89H7.08315C5.28611 246.886 3.56404 246.17 2.29476 244.898C1.02548 243.627 0.312634 241.905 0.312622 240.11V191.852H356.363V240.11C356.362 241.905 355.65 243.627 354.38 244.898C353.111 246.17 351.389 246.886 349.592 246.89V246.89Z" fill="#CCCCCC"/>
<path d="M356.721 214.659H0V8.17323C0.00250576 6.00628 0.86517 3.92879 2.39874 2.39655C3.93231 0.864303 6.01155 0.00243024 8.18031 0H348.54C350.709 0.00242467 352.788 0.864297 354.322 2.39654C355.855 3.92878 356.718 6.00626 356.721 8.17323V214.659Z" fill="#7D2DE2"/>
<path d="M335.415 199.673H21.3055C19.6335 199.671 18.0306 199.006 16.8483 197.825C15.666 196.644 15.001 195.042 14.9991 193.372V21.2877C15.0009 19.6171 15.666 18.0154 16.8482 16.8341C18.0305 15.6528 19.6335 14.9882 21.3055 14.9863H335.415C337.087 14.9882 338.69 15.6528 339.872 16.8341C341.055 18.0154 341.72 19.6171 341.721 21.2877V193.372C341.72 195.042 341.055 196.644 339.872 197.825C338.69 199.006 337.087 199.671 335.415 199.673V199.673Z" fill="white"/>
<path d="M266.453 286.757H89.95C89.7692 286.761 89.5922 286.705 89.4466 286.597C89.301 286.49 89.1949 286.338 89.145 286.164C89.1138 286.046 89.1101 285.922 89.1343 285.802C89.1585 285.683 89.2099 285.57 89.2846 285.473C89.3592 285.376 89.4551 285.298 89.5649 285.244C89.6746 285.19 89.7953 285.162 89.9176 285.161H266.387C266.578 285.155 266.765 285.213 266.919 285.326C267.072 285.439 267.183 285.601 267.232 285.785C267.258 285.902 267.258 286.023 267.231 286.139C267.203 286.256 267.15 286.365 267.076 286.458C267.001 286.551 266.906 286.626 266.798 286.678C266.69 286.73 266.572 286.757 266.453 286.757Z" fill="#CCCCCC"/>
<path d="M332.062 42.8071H256.221V100.699H332.062V42.8071Z" fill="#F2F2F2"/>
<path d="M328.293 45.6838H259.99V97.8225H328.293V45.6838Z" fill="white"/>
<path d="M295.341 84.3576C295.35 84.3577 295.359 84.3576 295.368 84.3571C299.992 84.1154 304.35 82.1233 307.556 78.7857C310.761 75.4482 312.575 71.0159 312.627 66.3901C312.679 61.7644 310.965 57.2925 307.835 53.884C304.705 50.4755 300.393 48.3862 295.776 48.0411C295.719 48.0366 295.661 48.044 295.607 48.0627C295.553 48.0814 295.503 48.1111 295.461 48.15C295.419 48.1881 295.386 48.2346 295.363 48.2863C295.339 48.3381 295.327 48.3941 295.327 48.4507L294.929 83.9374C294.928 84.0477 294.971 84.1539 295.048 84.2327C295.125 84.3115 295.231 84.3564 295.341 84.3576V84.3576Z" fill="#3F3D56"/>
<path d="M281.059 53.909C281.201 53.9107 281.336 53.9684 281.435 54.0696L293.662 66.5632C293.711 66.6132 293.75 66.6724 293.776 66.7374C293.802 66.8025 293.815 66.8721 293.814 66.9421L293.624 83.9227C293.623 83.9955 293.608 84.0675 293.578 84.1341C293.548 84.2006 293.505 84.2603 293.451 84.3093C293.397 84.359 293.333 84.3971 293.264 84.4211C293.195 84.4452 293.121 84.4548 293.048 84.4493C289.648 84.1951 286.387 82.9987 283.631 80.9945C280.874 78.9903 278.732 76.2578 277.444 73.104C276.156 69.9501 275.774 66.5 276.341 63.1411C276.907 59.7823 278.4 56.6479 280.652 54.0902C280.7 54.0351 280.76 53.9906 280.827 53.9594C280.893 53.9283 280.966 53.9111 281.039 53.9091C281.046 53.9089 281.052 53.9089 281.059 53.909Z" fill="#E6E6E6"/>
<path d="M293.492 47.896C293.628 47.8977 293.759 47.9511 293.858 48.0454C293.911 48.0957 293.953 48.1564 293.981 48.2237C294.009 48.2909 294.023 48.3633 294.022 48.4363L293.85 63.7572C293.849 63.8626 293.816 63.9654 293.757 64.0524C293.697 64.1395 293.613 64.2069 293.515 64.2462C293.417 64.2855 293.31 64.2949 293.206 64.2731C293.103 64.2514 293.008 64.1996 292.935 64.1241L282.265 53.2219C282.214 53.1701 282.175 53.1085 282.149 53.0409C282.123 52.9733 282.111 52.901 282.113 52.8286C282.116 52.7562 282.133 52.6851 282.164 52.6196C282.195 52.5541 282.24 52.4956 282.294 52.4476C285.397 49.7186 289.331 48.1151 293.459 47.8967C293.47 47.8961 293.481 47.8959 293.492 47.896Z" fill="#7D2DE2"/>
<path d="M287.996 91.7164C287.988 92.3627 287.789 92.9924 287.424 93.5258C287.059 94.0592 286.543 94.4723 285.943 94.713C285.342 94.9536 284.684 95.011 284.051 94.8778C283.418 94.7446 282.838 94.4268 282.386 93.9646C281.934 93.5025 281.629 92.9167 281.51 92.2814C281.391 91.646 281.463 90.9897 281.717 90.3953C281.971 89.801 282.396 89.2953 282.938 88.9422C283.48 88.5891 284.115 88.4046 284.761 88.4118C285.629 88.4225 286.456 88.7764 287.062 89.396C287.669 90.0155 288.004 90.85 287.996 91.7164Z" fill="#7D2DE2"/>
<path d="M297.34 91.8211C297.333 92.4675 297.134 93.0972 296.769 93.6305C296.403 94.1639 295.888 94.577 295.287 94.8177C294.687 95.0583 294.029 95.1157 293.395 94.9825C292.762 94.8493 292.183 94.5315 291.731 94.0694C291.279 93.6072 290.974 93.0214 290.855 92.3861C290.735 91.7508 290.808 91.0944 291.062 90.5001C291.316 89.9057 291.741 89.4 292.283 89.047C292.825 88.6939 293.459 88.5093 294.106 88.5166C294.973 88.5273 295.801 88.8812 296.407 89.5007C297.013 90.1202 297.349 90.9547 297.34 91.8211V91.8211Z" fill="#3F3D56"/>
<path d="M306.685 91.9259C306.678 92.5722 306.479 93.2019 306.113 93.7353C305.748 94.2686 305.232 94.6818 304.632 94.9224C304.032 95.1631 303.373 95.2204 302.74 95.0872C302.107 94.954 301.528 94.6363 301.076 94.1741C300.623 93.712 300.318 93.1262 300.199 92.4908C300.08 91.8555 300.152 91.1992 300.407 90.6048C300.661 90.0104 301.086 89.5047 301.628 89.1517C302.17 88.7986 302.804 88.6141 303.451 88.6213C304.318 88.632 305.146 88.9859 305.752 89.6054C306.358 90.2249 306.694 91.0594 306.685 91.9259Z" fill="#E6E6E6"/>
<path d="M331.263 109.81H255.423V167.702H331.263V109.81Z" fill="#F2F2F2"/>
<path d="M327.495 112.687H259.192V164.825H327.495V112.687Z" fill="white"/>
<path d="M270.781 129.823C272.347 129.823 273.617 128.554 273.617 126.989C273.617 125.424 272.347 124.156 270.781 124.156C269.214 124.156 267.945 125.424 267.945 126.989C267.945 128.554 269.214 129.823 270.781 129.823Z" fill="#3F3D56"/>
<path d="M316.348 124.784C316.6 124.784 316.851 124.833 317.085 124.93C317.318 125.026 317.531 125.168 317.71 125.346C317.888 125.525 318.03 125.737 318.127 125.97C318.224 126.203 318.274 126.453 318.274 126.706C318.274 126.959 318.224 127.209 318.127 127.442C318.03 127.676 317.888 127.888 317.71 128.066C317.531 128.245 317.318 128.386 317.085 128.482C316.851 128.579 316.6 128.628 316.348 128.628H286.52C286.01 128.628 285.521 128.425 285.16 128.065C284.8 127.705 284.597 127.216 284.597 126.706C284.597 126.196 284.8 125.708 285.16 125.347C285.521 124.987 286.01 124.784 286.52 124.784H316.348ZM316.348 124.314H286.52C286.206 124.313 285.894 124.375 285.603 124.495C285.312 124.615 285.048 124.791 284.825 125.013C284.602 125.235 284.425 125.499 284.305 125.79C284.184 126.08 284.122 126.392 284.122 126.706C284.122 127.021 284.184 127.332 284.305 127.622C284.425 127.913 284.602 128.177 284.825 128.399C285.048 128.621 285.312 128.797 285.603 128.917C285.894 129.037 286.206 129.099 286.52 129.098H316.348C316.662 129.099 316.974 129.037 317.265 128.917C317.556 128.797 317.82 128.621 318.043 128.399C318.266 128.177 318.442 127.913 318.563 127.622C318.683 127.332 318.745 127.021 318.745 126.706C318.745 126.392 318.683 126.08 318.563 125.79C318.442 125.499 318.266 125.235 318.043 125.013C317.82 124.791 317.556 124.615 317.265 124.495C316.974 124.375 316.662 124.313 316.348 124.314V124.314Z" fill="#3F3D56"/>
<path d="M304.578 129.098H282.125C281.49 129.098 280.881 128.846 280.432 128.398C279.983 127.949 279.73 127.341 279.73 126.706C279.73 126.072 279.983 125.463 280.432 125.014C280.881 124.566 281.49 124.314 282.125 124.314H304.578C305.213 124.314 305.822 124.566 306.271 125.014C306.72 125.463 306.973 126.072 306.973 126.706C306.973 127.341 306.72 127.949 306.271 128.398C305.822 128.846 305.213 129.098 304.578 129.098V129.098Z" fill="#7D2DE2"/>
<path d="M270.781 141.59C272.347 141.59 273.617 140.321 273.617 138.756C273.617 137.191 272.347 135.922 270.781 135.922C269.214 135.922 267.945 137.191 267.945 138.756C267.945 140.321 269.214 141.59 270.781 141.59Z" fill="#3F3D56"/>
<path d="M316.348 136.551C316.6 136.551 316.851 136.6 317.085 136.696C317.318 136.793 317.531 136.934 317.71 137.113C317.889 137.291 318.031 137.503 318.127 137.737C318.224 137.97 318.274 138.22 318.274 138.473C318.274 138.725 318.224 138.975 318.127 139.209C318.031 139.442 317.889 139.654 317.71 139.833C317.531 140.011 317.318 140.153 317.085 140.249C316.851 140.345 316.6 140.395 316.348 140.394H286.52C286.01 140.394 285.521 140.192 285.16 139.832C284.8 139.471 284.597 138.982 284.597 138.473C284.597 137.963 284.8 137.474 285.16 137.114C285.521 136.753 286.01 136.551 286.52 136.551H316.348ZM316.348 136.08H286.52C285.885 136.08 285.276 136.332 284.827 136.781C284.378 137.23 284.126 137.838 284.126 138.473C284.126 139.107 284.378 139.716 284.827 140.164C285.276 140.613 285.885 140.865 286.52 140.865H316.348C316.983 140.865 317.592 140.613 318.041 140.164C318.49 139.716 318.742 139.107 318.742 138.473C318.742 137.838 318.49 137.23 318.041 136.781C317.592 136.332 316.983 136.08 316.348 136.08Z" fill="#3F3D56"/>
<path d="M313.057 140.865H282.125C281.49 140.865 280.881 140.613 280.432 140.164C279.982 139.716 279.73 139.107 279.73 138.473C279.73 137.838 279.982 137.23 280.432 136.781C280.881 136.332 281.49 136.08 282.125 136.08H313.057C313.692 136.08 314.301 136.332 314.75 136.781C315.199 137.23 315.452 137.838 315.452 138.473C315.452 139.107 315.199 139.716 314.75 140.164C314.301 140.613 313.692 140.865 313.057 140.865Z" fill="#7D2DE2"/>
<path d="M270.781 153.356C272.347 153.356 273.617 152.088 273.617 150.523C273.617 148.958 272.347 147.689 270.781 147.689C269.214 147.689 267.945 148.958 267.945 150.523C267.945 152.088 269.214 153.356 270.781 153.356Z" fill="#3F3D56"/>
<path d="M316.348 148.318C316.6 148.317 316.851 148.367 317.085 148.463C317.318 148.559 317.531 148.701 317.71 148.879C317.889 149.058 318.031 149.27 318.127 149.503C318.224 149.737 318.274 149.987 318.274 150.239C318.274 150.492 318.224 150.742 318.127 150.975C318.031 151.209 317.889 151.421 317.71 151.599C317.531 151.778 317.318 151.919 317.085 152.016C316.851 152.112 316.6 152.161 316.348 152.161H286.52C286.01 152.161 285.521 151.959 285.16 151.598C284.8 151.238 284.597 150.749 284.597 150.239C284.597 149.73 284.8 149.241 285.16 148.88C285.521 148.52 286.01 148.318 286.52 148.318H316.348ZM316.348 147.847H286.52C285.885 147.847 285.276 148.099 284.827 148.548C284.378 148.996 284.126 149.605 284.126 150.239C284.126 150.874 284.378 151.482 284.827 151.931C285.276 152.38 285.885 152.632 286.52 152.632H316.348C316.983 152.632 317.592 152.38 318.041 151.931C318.49 151.482 318.742 150.874 318.742 150.239C318.742 149.605 318.49 148.996 318.041 148.548C317.592 148.099 316.983 147.847 316.348 147.847Z" fill="#3F3D56"/>
<path d="M294.686 152.632H282.125C281.81 152.632 281.498 152.571 281.207 152.451C280.916 152.331 280.652 152.154 280.429 151.932C280.207 151.71 280.03 151.446 279.909 151.156C279.789 150.865 279.727 150.554 279.727 150.239C279.727 149.925 279.789 149.613 279.909 149.323C280.03 149.032 280.207 148.769 280.429 148.546C280.652 148.324 280.916 148.148 281.207 148.028C281.498 147.908 281.81 147.846 282.125 147.847H294.686C295.32 147.848 295.929 148.1 296.377 148.549C296.825 148.997 297.077 149.605 297.077 150.239C297.077 150.873 296.825 151.481 296.377 151.93C295.929 152.378 295.32 152.631 294.686 152.632V152.632Z" fill="#7D2DE2"/>
<path d="M238.658 53.0496H26.7741V161.55H238.658V53.0496Z" fill="#F2F2F2"/>
<path d="M231.596 58.4409H33.8369V156.159H231.596V58.4409Z" fill="white"/>
<path d="M207.069 141.251H62.9071C62.7875 141.251 62.6727 141.203 62.5881 141.119C62.5035 141.034 62.456 140.92 62.456 140.8V71.7606C62.456 71.641 62.5035 71.5264 62.5881 71.4418C62.6727 71.3573 62.7875 71.3098 62.9071 71.3098C63.0268 71.3098 63.1415 71.3573 63.2261 71.4418C63.3108 71.5264 63.3583 71.641 63.3583 71.7606V140.349H207.069C207.189 140.349 207.304 140.397 207.388 140.481C207.473 140.566 207.521 140.681 207.521 140.8C207.521 140.92 207.473 141.034 207.388 141.119C207.304 141.203 207.189 141.251 207.069 141.251V141.251Z" fill="#3F3D56"/>
<path d="M93.7083 136.292H80.5962C80.2411 136.292 79.9007 136.151 79.6497 135.9C79.3986 135.649 79.2574 135.309 79.2569 134.954V116.894C79.2574 116.539 79.3986 116.199 79.6497 115.948C79.9007 115.698 80.2411 115.557 80.5962 115.556H93.7083C94.0634 115.557 94.4038 115.698 94.6549 115.948C94.9059 116.199 95.0472 116.539 95.0476 116.894V134.954C95.0472 135.309 94.9059 135.649 94.6549 135.9C94.4038 136.151 94.0634 136.292 93.7083 136.292V136.292Z" fill="#7D2DE2"/>
<path d="M117.62 136.292H104.508C104.153 136.292 103.812 136.151 103.561 135.9C103.31 135.649 103.169 135.309 103.169 134.954V99.7641C103.169 99.4093 103.31 99.0692 103.561 98.8184C103.812 98.5675 104.153 98.4264 104.508 98.426H117.62C117.975 98.4264 118.315 98.5675 118.566 98.8184C118.818 99.0692 118.959 99.4093 118.959 99.7641V134.954C118.959 135.309 118.818 135.649 118.566 135.9C118.315 136.151 117.975 136.292 117.62 136.292V136.292Z" fill="#7D2DE2"/>
<path d="M141.532 136.292H128.419C128.064 136.292 127.724 136.151 127.473 135.9C127.222 135.649 127.081 135.309 127.08 134.954V116.894C127.081 116.539 127.222 116.199 127.473 115.948C127.724 115.698 128.064 115.557 128.419 115.556H141.532C141.887 115.557 142.227 115.698 142.478 115.948C142.729 116.199 142.87 116.539 142.871 116.894V134.954C142.87 135.309 142.729 135.649 142.478 135.9C142.227 136.151 141.887 136.292 141.532 136.292V136.292Z" fill="#7D2DE2"/>
<path d="M165.443 136.292H152.331C151.984 136.3 151.648 136.17 151.397 135.93C151.146 135.691 151 135.362 150.992 135.015V92.9418C151 92.5951 151.146 92.266 151.397 92.0266C151.648 91.7872 151.984 91.6569 152.331 91.6644H165.443C165.79 91.6569 166.126 91.7872 166.377 92.0266C166.628 92.266 166.774 92.5951 166.782 92.9418V135.015C166.774 135.362 166.628 135.691 166.377 135.93C166.126 136.17 165.79 136.3 165.443 136.292V136.292Z" fill="#7D2DE2"/>
<path d="M189.355 136.292H176.243C175.888 136.292 175.547 136.151 175.296 135.9C175.045 135.649 174.904 135.309 174.903 134.954V80.8312C174.904 80.4765 175.045 80.1363 175.296 79.8855C175.547 79.6346 175.888 79.4936 176.243 79.4932H189.355C189.71 79.4936 190.05 79.6346 190.301 79.8855C190.552 80.1363 190.694 80.4765 190.694 80.8312V134.954C190.694 135.309 190.552 135.649 190.301 135.9C190.05 136.151 189.71 136.292 189.355 136.292V136.292Z" fill="#7D2DE2"/>
<path d="M87.1523 110.147C88.6473 110.147 89.8592 108.936 89.8592 107.442C89.8592 105.948 88.6473 104.737 87.1523 104.737C85.6572 104.737 84.4453 105.948 84.4453 107.442C84.4453 108.936 85.6572 110.147 87.1523 110.147Z" fill="#3F3D56"/>
<path d="M111.064 92.5659C112.559 92.5659 113.771 91.355 113.771 89.8612C113.771 88.3674 112.559 87.1565 111.064 87.1565C109.569 87.1565 108.357 88.3674 108.357 89.8612C108.357 91.355 109.569 92.5659 111.064 92.5659Z" fill="#3F3D56"/>
<path d="M134.975 110.147C136.47 110.147 137.682 108.936 137.682 107.442C137.682 105.948 136.47 104.737 134.975 104.737C133.48 104.737 132.268 105.948 132.268 107.442C132.268 108.936 133.48 110.147 134.975 110.147Z" fill="#3F3D56"/>
<path d="M158.887 84.001C160.382 84.001 161.594 82.7901 161.594 81.2963C161.594 79.8025 160.382 78.5916 158.887 78.5916C157.392 78.5916 156.18 79.8025 156.18 81.2963C156.18 82.7901 157.392 84.001 158.887 84.001Z" fill="#3F3D56"/>
<path d="M182.799 74.0835C184.294 74.0835 185.506 72.8726 185.506 71.3788C185.506 69.885 184.294 68.6741 182.799 68.6741C181.304 68.6741 180.092 69.885 180.092 71.3788C180.092 72.8726 181.304 74.0835 182.799 74.0835Z" fill="#3F3D56"/>
<path d="M135.032 108.048L111.064 90.11L87.4227 107.803L86.8819 107.081L111.064 88.9833L134.918 106.836L158.623 80.9167L158.718 80.878L182.63 71.252L182.967 72.0881L159.151 81.676L135.032 108.048Z" fill="#3F3D56"/>
<path d="M492.477 330H293.195C293.056 330 292.923 329.945 292.825 329.847C292.727 329.749 292.672 329.616 292.672 329.477C292.672 329.339 292.727 329.206 292.825 329.108C292.923 329.01 293.056 328.955 293.195 328.955H492.477C492.616 328.955 492.749 329.01 492.847 329.108C492.945 329.206 493 329.339 493 329.477C493 329.616 492.945 329.749 492.847 329.847C492.749 329.945 492.616 330 492.477 330Z" fill="#CCCCCC"/>
</g>
<defs>
<clipPath id="clip0_19_79">
<rect width="493" height="330" fill="white"/>
</clipPath>
</defs>
</svg>
