<svg width="410" height="188" viewBox="0 0 510 388" fill="none" xmlns="http://www.w3.org/2000/svg">
<g clip-path="url(#clip0_38_125)">
<path d="M375.985 266.816C375.977 289.306 369.727 311.35 357.933 330.487C346.138 349.624 329.265 365.101 309.197 375.187C308.169 375.705 307.132 376.208 306.084 376.696C278.996 389.287 248.227 391.442 219.653 382.749C216.849 381.89 214.089 380.935 211.373 379.883C186.537 370.26 165.562 352.7 151.701 329.925C137.839 307.15 131.864 280.432 134.702 253.91C137.539 227.388 149.031 202.545 167.396 183.229C185.761 163.913 209.974 151.204 236.283 147.071C242.475 146.111 248.732 145.63 254.998 145.632C321.818 145.632 375.985 199.887 375.985 266.816Z" fill="#F2F2F2"/>
<path d="M384.762 284.087C402.798 264.473 412.078 235.107 402.354 210.283C388.026 235.482 365.262 254.793 338.088 264.798C327.594 268.619 315.526 271.774 309.825 281.391C306.278 287.374 306.027 294.864 307.634 301.634C309.242 308.404 312.544 314.629 315.813 320.77L315.834 322.507C341.376 314.987 366.725 303.702 384.762 284.087Z" fill="#E6E6E6"/>
<path d="M401.811 210.415C398.749 232.274 388.889 252.61 373.632 268.535C370.342 271.927 366.711 275.081 362.513 277.295C358.404 279.421 353.802 280.406 349.185 280.148C344.875 279.994 340.485 279.336 336.212 280.235C331.709 281.181 328.146 284.094 325.835 288.022C323.007 292.829 322.071 298.366 321.345 303.814C320.538 309.862 319.795 316.157 316.347 321.362C315.929 321.993 316.931 322.605 317.348 321.976C323.347 312.919 321.326 301.354 325.37 291.59C327.257 287.033 330.527 283.019 335.419 281.639C339.697 280.432 344.226 281.106 348.588 281.3C353.169 281.503 357.529 280.939 361.723 278.996C366.014 277.009 369.776 273.99 373.138 270.698C380.705 263.174 387.044 254.505 391.923 245.009C397.551 234.202 401.292 222.51 402.984 210.439C403.089 209.692 401.915 209.673 401.811 210.415V210.415Z" fill="white"/>
<path d="M378.846 263.697C381.861 265.898 385.559 266.954 389.28 266.677C393.001 266.399 396.502 264.806 399.158 262.181C399.694 261.648 398.892 260.789 398.356 261.323C395.887 263.772 392.626 265.256 389.16 265.507C385.695 265.759 382.254 264.761 379.459 262.694C378.85 262.246 378.242 263.251 378.846 263.697V263.697Z" fill="white"/>
<path d="M351.36 280.514C350.111 272.977 351.744 265.246 355.933 258.862C356.349 258.23 355.348 257.617 354.933 258.249C350.586 264.9 348.903 272.949 350.219 280.789C350.345 281.536 351.486 281.257 351.36 280.514Z" fill="white"/>
<path d="M395.999 234.089C394.656 233.481 393.484 232.548 392.589 231.374C391.694 230.2 391.104 228.821 390.873 227.363C390.756 226.614 389.616 226.894 389.732 227.638C389.995 229.248 390.648 230.77 391.634 232.069C392.62 233.368 393.908 234.406 395.387 235.092C395.521 235.168 395.679 235.19 395.829 235.154C395.979 235.118 396.109 235.026 396.194 234.897C396.274 234.764 396.299 234.604 396.262 234.453C396.226 234.302 396.132 234.171 395.999 234.089V234.089Z" fill="white"/>
<path d="M316.707 182.132C316.767 182.602 316.826 183.071 316.878 183.547C317.645 189.862 317.899 196.228 317.637 202.584C317.624 203.076 317.604 203.574 317.578 204.064C316.783 219.37 313.158 234.395 306.887 248.375C304.387 253.936 301.467 259.298 298.155 264.415C293.58 271.482 288.057 278.779 286.137 286.714C285.927 287.539 285.768 288.377 285.662 289.222L313.716 322.397C313.818 322.44 313.912 322.49 314.014 322.534L315.074 323.91C315.263 323.658 315.454 323.392 315.643 323.14C315.753 322.995 315.857 322.842 315.968 322.696C316.039 322.596 316.111 322.497 316.181 322.411C316.205 322.378 316.229 322.344 316.245 322.318C316.315 322.232 316.372 322.145 316.434 322.066C317.505 320.585 318.568 319.095 319.622 317.594C319.629 317.587 319.629 317.587 319.631 317.574C327.632 306.118 334.75 293.892 339.788 280.974C339.939 280.585 340.099 280.19 340.237 279.786C342.476 273.95 344.235 267.941 345.496 261.818C346.176 258.463 346.686 255.076 347.024 251.67C347.88 242.866 347.349 233.982 345.449 225.344C341.659 208.124 332.413 192.31 317.829 182.845C317.455 182.603 317.088 182.368 316.707 182.132Z" fill="#E6E6E6"/>
<path d="M316.35 182.564C327.044 201.862 331.395 224.046 328.786 245.962C328.198 250.654 327.194 255.363 325.173 259.662C323.17 263.837 320.088 267.398 316.246 269.977C312.713 272.453 308.812 274.576 305.941 277.869C302.914 281.341 301.82 285.815 302.336 290.345C302.967 295.889 305.549 300.874 308.243 305.662C311.234 310.978 314.425 316.451 314.801 322.687C314.846 323.443 316.014 323.328 315.969 322.573C315.315 311.724 306.749 303.709 304.109 293.474C302.877 288.698 303.075 283.521 306.151 279.469C308.842 275.925 312.863 273.733 316.462 271.257C320.242 268.657 323.385 265.577 325.565 261.496C327.796 257.322 328.986 252.643 329.691 247.987C331.21 237.416 331.061 226.672 329.249 216.147C327.246 204.124 323.206 192.533 317.301 181.875C316.935 181.215 315.987 181.908 316.35 182.564V182.564Z" fill="white"/>
<path d="M330.041 238.955C333.771 238.894 337.359 237.507 340.163 235.042C342.967 232.576 344.804 229.193 345.348 225.495C345.455 224.747 344.299 224.544 344.191 225.294C343.692 228.738 341.98 231.89 339.364 234.18C336.748 236.471 333.401 237.749 329.927 237.785C329.172 237.794 329.29 238.963 330.041 238.955V238.955Z" fill="white"/>
<path d="M318.203 268.957C312.676 263.693 309.333 256.536 308.84 248.912C308.792 248.157 307.624 248.271 307.672 249.026C308.2 256.958 311.694 264.4 317.458 269.865C318.008 270.386 318.75 269.475 318.203 268.957L318.203 268.957Z" fill="white"/>
<path d="M325.94 204.97C324.501 205.295 323.005 205.257 321.584 204.859C320.164 204.461 318.865 203.717 317.803 202.692C317.26 202.164 316.518 203.075 317.058 203.599C318.236 204.726 319.672 205.547 321.24 205.99C322.808 206.433 324.461 206.485 326.053 206.14C326.206 206.12 326.346 206.043 326.444 205.924C326.542 205.805 326.59 205.652 326.58 205.498C326.565 205.344 326.488 205.201 326.369 205.102C326.249 205.004 326.094 204.956 325.94 204.97H325.94Z" fill="white"/>
<path d="M509.361 23.5425H0.638656C0.468006 23.5387 0.305622 23.4682 0.186271 23.346C0.0669194 23.2237 9.15527e-05 23.0595 9.15527e-05 22.8886C9.15527e-05 22.7176 0.0669194 22.5534 0.186271 22.4312C0.305622 22.309 0.468006 22.2384 0.638656 22.2346H509.361C509.532 22.2384 509.694 22.309 509.814 22.4312C509.933 22.5534 510 22.7176 510 22.8886C510 23.0595 509.933 23.2237 509.814 23.346C509.694 23.4682 509.532 23.5387 509.361 23.5425V23.5425Z" fill="#CACACA"/>
<path d="M15.0135 14.387C18.8935 14.387 22.0388 11.1664 22.0388 7.19352C22.0388 3.22065 18.8935 0 15.0135 0C11.1336 0 7.98828 3.22065 7.98828 7.19352C7.98828 11.1664 11.1336 14.387 15.0135 14.387Z" fill="#3F3D56"/>
<path d="M39.2827 14.387C43.1626 14.387 46.3079 11.1664 46.3079 7.19352C46.3079 3.22065 43.1626 0 39.2827 0C35.4027 0 32.2574 3.22065 32.2574 7.19352C32.2574 11.1664 35.4027 14.387 39.2827 14.387Z" fill="#3F3D56"/>
<path d="M63.5518 14.387C67.4317 14.387 70.577 11.1664 70.577 7.19352C70.577 3.22065 67.4317 0 63.5518 0C59.6718 0 56.5265 3.22065 56.5265 7.19352C56.5265 11.1664 59.6718 14.387 63.5518 14.387Z" fill="#3F3D56"/>
<path d="M494.82 4.39999H477.577C477.235 4.39248 476.91 4.25139 476.672 4.00693C476.433 3.76247 476.299 3.43407 476.299 3.09209C476.299 2.7501 476.433 2.42171 476.672 2.17724C476.91 1.93278 477.235 1.79169 477.577 1.78418H494.82C495.162 1.79169 495.487 1.93278 495.725 2.17724C495.964 2.42171 496.098 2.7501 496.098 3.09209C496.098 3.43407 495.964 3.76247 495.725 4.00693C495.487 4.25139 495.162 4.39248 494.82 4.39999Z" fill="#3F3D56"/>
<path d="M494.82 9.30479H477.577C477.235 9.29724 476.91 9.15614 476.672 8.91168C476.433 8.66722 476.299 8.33885 476.299 7.99688C476.299 7.65492 476.433 7.32655 476.672 7.08209C476.91 6.83763 477.235 6.69651 477.577 6.68896H494.82C495.162 6.69651 495.487 6.83763 495.725 7.08209C495.964 7.32655 496.098 7.65492 496.098 7.99688C496.098 8.33885 495.964 8.66722 495.725 8.91168C495.487 9.15614 495.162 9.29724 494.82 9.30479V9.30479Z" fill="#3F3D56"/>
<path d="M494.82 14.2093H477.577C477.235 14.2018 476.91 14.0607 476.672 13.8162C476.433 13.5718 476.299 13.2434 476.299 12.9014C476.299 12.5595 476.433 12.2311 476.672 11.9866C476.91 11.7422 477.235 11.6011 477.577 11.5935H494.82C495.162 11.6011 495.487 11.7422 495.725 11.9866C495.964 12.2311 496.098 12.5595 496.098 12.9014C496.098 13.2434 495.964 13.5718 495.725 13.8162C495.487 14.0607 495.162 14.2018 494.82 14.2093V14.2093Z" fill="#3F3D56"/>
<path d="M137.926 316.122C123.536 300.473 116.132 277.044 123.89 257.239C135.321 277.343 153.484 292.75 175.164 300.733C183.536 303.781 193.165 306.298 197.713 313.971C200.543 318.745 200.743 324.72 199.461 330.121C198.178 335.523 195.544 340.49 192.935 345.389L192.919 346.774C172.54 340.775 152.316 331.771 137.926 316.122Z" fill="#E6E6E6"/>
<path d="M124.323 257.344C126.766 274.784 134.633 291.008 146.806 303.714C149.378 306.496 152.372 308.855 155.677 310.703C158.955 312.399 162.626 313.185 166.31 312.979C169.749 312.856 173.252 312.332 176.66 313.048C178.399 313.441 180.036 314.198 181.463 315.268C182.89 316.339 184.075 317.7 184.94 319.262C187.196 323.096 187.942 327.515 188.522 331.861C189.166 336.686 189.758 341.708 192.509 345.862C192.843 346.365 192.044 346.853 191.711 346.351C186.924 339.125 188.537 329.898 185.31 322.108C183.805 318.473 181.196 315.27 177.293 314.169C173.88 313.206 170.267 313.744 166.786 313.898C163.196 314.152 159.598 313.521 156.307 312.061C152.918 310.387 149.839 308.148 147.2 305.44C141.163 299.437 136.105 292.52 132.212 284.944C127.722 276.322 124.737 266.994 123.387 257.363C123.304 256.767 124.241 256.752 124.323 257.344L124.323 257.344Z" fill="white"/>
<path d="M142.646 299.854C140.24 301.611 137.289 302.453 134.321 302.232C131.352 302.01 128.559 300.739 126.44 298.645C126.012 298.22 126.652 297.535 127.08 297.96C129.05 299.914 131.652 301.098 134.417 301.299C137.181 301.499 139.927 300.703 142.157 299.055C142.642 298.697 143.128 299.499 142.646 299.854V299.854Z" fill="white"/>
<path d="M164.575 313.272C165.571 307.259 164.268 301.091 160.926 295.997C160.595 295.493 161.393 295.004 161.725 295.508C165.193 300.815 166.536 307.236 165.485 313.491C165.384 314.087 164.475 313.864 164.575 313.271V313.272Z" fill="white"/>
<path d="M128.96 276.232C130.032 275.747 130.967 275.003 131.681 274.066C132.395 273.129 132.866 272.03 133.05 270.866C133.143 270.269 134.053 270.492 133.961 271.085C133.75 272.37 133.229 273.584 132.443 274.621C131.656 275.657 130.628 276.485 129.449 277.032C129.342 277.093 129.216 277.111 129.096 277.082C128.977 277.053 128.873 276.98 128.805 276.877C128.741 276.771 128.721 276.643 128.75 276.523C128.779 276.402 128.855 276.298 128.96 276.232V276.232Z" fill="white"/>
<path d="M192.222 234.779C192.175 235.154 192.127 235.528 192.086 235.908C191.474 240.946 191.271 246.026 191.48 251.096C191.49 251.489 191.506 251.886 191.528 252.277C192.162 264.489 195.054 276.476 200.057 287.63C202.052 292.066 204.381 296.345 207.024 300.427C210.674 306.065 215.08 311.887 216.612 318.218C216.78 318.876 216.906 319.545 216.991 320.219L194.608 346.687C194.527 346.722 194.452 346.761 194.371 346.796L193.526 347.894C193.375 347.693 193.222 347.481 193.071 347.28C192.983 347.164 192.9 347.042 192.812 346.926C192.755 346.846 192.698 346.767 192.642 346.698C192.623 346.672 192.604 346.645 192.591 346.624C192.535 346.556 192.49 346.486 192.44 346.423C191.585 345.242 190.738 344.052 189.897 342.855C189.891 342.85 189.891 342.85 189.89 342.839C183.506 333.699 177.827 323.945 173.808 313.638C173.687 313.328 173.56 313.013 173.449 312.691C171.663 308.035 170.26 303.24 169.253 298.355C168.711 295.679 168.304 292.976 168.034 290.258C167.351 283.235 167.775 276.147 169.291 269.255C172.315 255.516 179.692 242.9 191.328 235.348C191.625 235.155 191.918 234.967 192.222 234.779Z" fill="#E6E6E6"/>
<path d="M192.507 235.123C183.975 250.521 180.503 268.219 182.586 285.705C182.967 289.477 183.94 293.166 185.468 296.635C187.066 299.966 189.525 302.808 192.59 304.865C195.409 306.84 198.521 308.534 200.812 311.162C201.965 312.524 202.817 314.115 203.312 315.831C203.808 317.546 203.936 319.347 203.688 321.115C203.185 325.538 201.125 329.516 198.975 333.335C196.589 337.576 194.043 341.944 193.743 346.919C193.707 347.522 192.775 347.43 192.811 346.828C193.333 338.172 200.167 331.778 202.273 323.612C203.256 319.801 203.098 315.671 200.644 312.438C198.497 309.611 195.29 307.861 192.418 305.886C189.398 303.923 186.905 301.249 185.155 298.099C183.455 294.719 182.342 291.074 181.863 287.32C180.651 278.887 180.77 270.314 182.216 261.918C183.814 252.325 187.038 243.077 191.748 234.574C192.04 234.048 192.797 234.601 192.507 235.123H192.507Z" fill="white"/>
<path d="M181.584 280.114C178.608 280.066 175.745 278.959 173.508 276.992C171.271 275.025 169.805 272.326 169.372 269.376C169.286 268.779 170.209 268.617 170.294 269.215C170.693 271.963 172.059 274.477 174.146 276.305C176.233 278.132 178.903 279.153 181.675 279.181C182.277 279.188 182.183 280.121 181.584 280.114V280.114Z" fill="white"/>
<path d="M191.029 304.051C195.438 299.851 198.106 294.141 198.499 288.058C198.537 287.456 199.469 287.547 199.43 288.149C199.01 294.478 196.222 300.415 191.623 304.775C191.185 305.191 190.592 304.464 191.029 304.051V304.051Z" fill="white"/>
<path d="M184.856 253C186.004 253.259 187.198 253.229 188.331 252.911C189.464 252.594 190.501 252 191.348 251.182C191.781 250.761 192.373 251.488 191.942 251.906C191.002 252.805 189.857 253.46 188.606 253.814C187.355 254.167 186.036 254.208 184.765 253.933C184.644 253.918 184.532 253.856 184.454 253.761C184.376 253.666 184.337 253.544 184.345 253.421C184.358 253.298 184.418 253.184 184.514 253.105C184.61 253.027 184.733 252.989 184.856 253V253Z" fill="white"/>
<path d="M471.634 69.6415H71.911C71.3186 69.6422 70.7318 69.5259 70.1843 69.2993C69.6368 69.0727 69.1393 68.7403 68.7201 68.321C68.301 67.9016 67.9685 67.4037 67.7416 66.8556C67.5148 66.3074 67.398 65.7199 67.398 65.1265C67.398 64.5332 67.5148 63.9456 67.7416 63.3975C67.9685 62.8494 68.301 62.3514 68.7201 61.9321C69.1393 61.5128 69.6368 61.1803 70.1843 60.9537C70.7318 60.7271 71.3186 60.6109 71.911 60.6116H471.634C472.226 60.6109 472.813 60.7271 473.36 60.9537C473.908 61.1803 474.405 61.5128 474.825 61.9321C475.244 62.3514 475.576 62.8494 475.803 63.3975C476.03 63.9456 476.147 64.5332 476.147 65.1265C476.147 65.7199 476.03 66.3074 475.803 66.8556C475.576 67.4037 475.244 67.9016 474.825 68.321C474.405 68.7403 473.908 69.0727 473.36 69.2993C472.813 69.5259 472.226 69.6422 471.634 69.6415V69.6415Z" fill="#7D2DE2"/>
<path d="M471.634 87.4822H71.911C70.7154 87.4822 69.5688 87.0066 68.7234 86.1598C67.8781 85.313 67.4031 84.1646 67.4031 82.9671C67.4031 81.7696 67.8781 80.6211 68.7234 79.7744C69.5688 78.9276 70.7154 78.4519 71.911 78.4519H471.634C472.829 78.4519 473.976 78.9276 474.821 79.7744C475.667 80.6211 476.142 81.7696 476.142 82.9671C476.142 84.1646 475.667 85.313 474.821 86.1598C473.976 87.0066 472.829 87.4822 471.634 87.4822V87.4822Z" fill="#7D2DE2"/>
<path d="M393.332 105.323H71.911C70.7154 105.323 69.5688 104.847 68.7234 104.001C67.8781 103.154 67.4031 102.005 67.4031 100.808C67.4031 99.6104 67.8781 98.462 68.7234 97.6152C69.5688 96.7684 70.7154 96.2927 71.911 96.2927H393.332C394.528 96.2927 395.674 96.7684 396.52 97.6152C397.365 98.462 397.84 99.6104 397.84 100.808C397.84 102.005 397.365 103.154 396.52 104.001C395.674 104.847 394.528 105.323 393.332 105.323V105.323Z" fill="#7D2DE2"/>
<path d="M445.513 251.295C450.018 254.358 455.025 257.804 456.477 263.395C456.811 264.589 456.9 265.838 456.739 267.068C456.578 268.297 456.171 269.481 455.542 270.549C454.386 272.479 452.663 273.996 450.983 275.457C448.987 277.193 446.976 278.899 445.427 281.067C444.718 282.06 446.357 283.006 447.059 282.023C449.93 278.004 454.701 275.728 457.228 271.415C460.216 266.315 458.222 260.266 454.519 256.137C452.208 253.56 449.31 251.593 446.467 249.66C445.457 248.973 444.51 250.613 445.512 251.295H445.513Z" fill="#E6E7E8"/>
<path d="M461.266 251.295C465.771 254.358 470.779 257.804 472.23 263.395C472.564 264.589 472.653 265.838 472.493 267.068C472.332 268.297 471.925 269.481 471.295 270.549C470.139 272.479 468.417 273.996 466.737 275.457C464.741 277.193 462.729 278.899 461.181 281.067C460.471 282.06 462.11 283.006 462.813 282.023C465.684 278.004 470.455 275.728 472.981 271.415C475.969 266.315 473.975 260.266 470.272 256.137C467.961 253.56 465.063 251.593 462.22 249.66C461.211 248.973 460.264 250.613 461.266 251.295H461.266Z" fill="#E6E7E8"/>
<path d="M235.749 185.746C243.868 185.746 250.451 179.153 250.451 171.021C250.451 162.888 243.868 156.295 235.749 156.295C227.63 156.295 221.048 162.888 221.048 171.021C221.048 179.153 227.63 185.746 235.749 185.746Z" fill="#2F2E41"/>
<path d="M259.271 241.702C279.841 241.702 296.515 225.001 296.515 204.398C296.515 183.795 279.841 167.094 259.271 167.094C238.702 167.094 222.028 183.795 222.028 204.398C222.028 225.001 238.702 241.702 259.271 241.702Z" fill="#2F2E41"/>
<path d="M262.353 241.693C279.068 241.693 292.618 228.121 292.618 211.379C292.618 194.637 279.068 181.065 262.353 181.065C245.639 181.065 232.089 194.637 232.089 211.379C232.089 228.121 245.639 241.693 262.353 241.693Z" fill="#9E616A"/>
<path d="M282.906 180.478C277.603 177.24 271.528 175.488 265.318 175.406C259.107 175.324 252.989 176.915 247.602 180.012C242.215 183.109 237.758 187.599 234.697 193.012C231.635 198.425 230.082 204.563 230.2 210.783C245.621 214.661 261.822 217.629 278.268 211.71L282.152 202.19L284.442 211.717C289.45 213.768 294.471 215.503 299.492 211.698C299.697 205.495 298.273 199.347 295.363 193.869C292.452 188.39 288.157 183.773 282.906 180.478V180.478Z" fill="#2F2E41"/>
<path d="M204.709 267.447H204.669C202.675 267.467 200.722 266.881 199.068 265.766C197.413 264.652 196.134 263.062 195.4 261.206C194.61 259.326 194.407 257.25 194.817 255.252C195.228 253.254 196.234 251.428 197.701 250.013L197.871 249.844C203.599 244.066 206.826 236.262 206.855 228.119C206.862 216.62 200.435 205.992 194.411 196.933L193.301 195.267C187.297 186.271 181.089 176.969 179.508 166.253C177.83 154.873 182.133 142.861 190.469 135.651C199.122 128.167 212.167 126.156 222.192 130.76C232.584 135.532 239.268 147.421 237.741 158.413L237.725 158.527L234.073 161.818L233.939 161.808C225.292 161.14 216.68 166.846 213.897 175.069C212.023 180.604 212.697 186.669 213.703 192.399C215.838 204.534 219.427 216.367 224.392 227.641C224.644 228.213 224.899 228.788 225.158 229.365C228.052 235.856 231.045 242.568 229.899 249.52C228.087 260.507 216.445 266.936 206.409 267.407C205.841 267.434 205.274 267.448 204.709 267.447Z" fill="#2F2E41"/>
<path d="M336.368 356.505C328.201 363.941 319.06 370.227 309.197 375.187L307.111 368.459L305.428 375.017L306.084 376.696C305.359 377.037 304.628 377.365 303.897 377.687C303.273 377.965 302.649 378.236 302.026 378.501C279.181 388.113 253.948 390.501 229.71 385.343C229.074 385.21 228.444 385.072 227.814 384.926C225.06 384.295 222.338 383.563 219.653 382.749L223.409 368.762L220.069 351.853L211.373 379.883C201.502 376.056 192.176 370.946 183.635 364.685C186.306 347.385 189.438 326.619 191.373 312.247C192.072 306.996 192.614 302.603 192.916 299.536C193.162 296.661 193.724 293.823 194.593 291.072C195.019 289.742 195.565 288.453 196.225 287.222C196.363 286.95 196.515 286.692 196.666 286.439C196.811 286.193 196.962 285.959 197.12 285.732C200.989 279.957 205.954 280.31 205.954 280.31L220.775 277.413L225.407 276.504L227.291 276.138L229.597 275.684C231.359 275.34 233.029 274.629 234.499 273.599C235.97 272.568 237.209 271.24 238.135 269.701L244.431 259.229C245.765 257.016 247.732 255.255 250.077 254.174C250.36 254.048 250.65 253.928 250.94 253.814C252.22 253.334 253.569 253.063 254.935 253.012L263.845 252.665L267.45 252.52L272.371 252.331C273.532 252.284 274.694 252.399 275.824 252.672H275.831C276.228 252.766 276.606 252.874 276.99 253.006C279.967 254.013 282.472 256.079 284.029 258.813L288.427 266.538C289.417 268.276 290.797 269.759 292.458 270.868C294.12 271.978 296.017 272.685 297.999 272.932L299.688 273.14L301.584 273.38L306.38 273.98L315.139 275.078L315.158 275.413C316.834 275.545 321.61 276.53 324.811 283.365C325.026 283.813 325.227 284.293 325.423 284.792C326.544 287.823 327.258 290.989 327.546 294.209C327.565 294.348 327.578 294.486 327.59 294.625C328.662 305.563 332.814 333.455 336.368 356.505Z" fill="#2F2E41"/>
<path d="M265.004 385.11L264.406 387.905L262.56 387.508L263.109 384.943C264.842 376.851 265.624 368.584 265.441 360.31L263.121 255.701L263.077 253.82L263.051 252.678L264.009 252.659L264.942 252.64L265.036 256.983L267.331 360.498C267.515 368.765 266.734 377.025 265.004 385.11V385.11Z" fill="#7D2DE2"/>
<path d="M190.944 315.378L217.524 319.013L219.383 319.266L220.517 319.424L220.384 320.37L220.252 321.298L215.955 320.711L190.686 317.252L190.944 315.378Z" fill="#7D2DE2"/>
<path d="M270.266 254.407L267.45 252.52L264.009 252.659L263.845 252.665L263.077 253.82L263.121 255.701L265.036 256.982L267.462 258.604C267.737 258.79 268.046 258.919 268.371 258.985C268.697 259.05 269.031 259.051 269.357 258.987C269.682 258.923 269.992 258.795 270.268 258.611C270.543 258.427 270.78 258.19 270.965 257.914C271.149 257.638 271.278 257.328 271.342 257.002C271.407 256.676 271.407 256.341 271.342 256.015C271.277 255.69 271.149 255.38 270.964 255.104C270.78 254.828 270.542 254.591 270.266 254.407H270.266ZM269.914 257.21C269.775 257.417 269.577 257.578 269.347 257.673C269.116 257.768 268.863 257.793 268.619 257.744C268.374 257.695 268.15 257.574 267.974 257.397C267.798 257.22 267.678 256.995 267.63 256.751C267.581 256.506 267.607 256.252 267.702 256.021C267.798 255.791 267.959 255.594 268.167 255.455C268.374 255.316 268.618 255.242 268.867 255.242C269.116 255.242 269.36 255.316 269.567 255.455C269.845 255.642 270.037 255.932 270.102 256.261C270.167 256.589 270.099 256.931 269.914 257.21V257.21Z" fill="#7D2DE2"/>
</g>
<defs>
<clipPath id="clip0_38_125">
<rect width="510" height="388" fill="white"/>
</clipPath>
</defs>
</svg>
