<svg width="44" height="44" viewBox="0 0 44 44" fill="none" xmlns="http://www.w3.org/2000/svg">
<path d="M20.7625 33.9583L37.0132 17.7032C37.0863 17.6302 37.1207 17.5314 37.1121 17.4325L36.0164 4.48176C35.9863 4.14661 35.7242 3.8845 35.389 3.85442L22.4382 2.76301C22.3394 2.75442 22.2363 2.78879 22.1675 2.86184L5.91675 19.1126C5.85278 19.1772 5.81689 19.2645 5.81689 19.3554C5.81689 19.4463 5.85278 19.5336 5.91675 19.5982L20.2769 33.9583C20.4101 34.0958 20.6293 34.0958 20.7625 33.9583ZM23.4523 5.95559L33.1031 6.772L33.9195 16.4228L20.5175 29.8204L10.0503 19.3575L23.4523 5.95559ZM26.0373 13.9577C26.2288 14.1492 26.4562 14.3011 26.7065 14.4047C26.9567 14.5084 27.225 14.5617 27.4958 14.5617C27.7667 14.5616 28.0349 14.5083 28.2851 14.4046C28.5354 14.3009 28.7627 14.149 28.9542 13.9574C29.1457 13.7659 29.2977 13.5385 29.4013 13.2883C29.5049 13.038 29.5583 12.7698 29.5582 12.4989C29.5582 12.2281 29.5049 11.9599 29.4012 11.7096C29.2975 11.4594 29.1456 11.232 28.954 11.0405C28.7625 10.849 28.5351 10.6971 28.2848 10.5934C28.0346 10.4898 27.7664 10.4365 27.4955 10.4365C27.2246 10.4365 26.9564 10.4899 26.7062 10.5936C26.456 10.6972 26.2286 10.8492 26.0371 11.0407C25.8456 11.2323 25.6937 11.4597 25.59 11.7099C25.4864 11.9602 25.4331 12.2284 25.4331 12.4992C25.4331 12.7701 25.4865 13.0383 25.5901 13.2885C25.6938 13.5388 25.8458 13.7661 26.0373 13.9577ZM38.2293 23.1947L36.5277 21.4974C36.4631 21.4334 36.3758 21.3975 36.2849 21.3975C36.194 21.3975 36.1068 21.4334 36.0421 21.4974L20.4875 37.022L10.2781 26.8384C10.2135 26.7744 10.1262 26.7385 10.0353 26.7385C9.94439 26.7385 9.85714 26.7744 9.79254 26.8384L8.09097 28.5357C8.027 28.6003 7.99111 28.6875 7.99111 28.7784C7.99111 28.8694 8.027 28.9566 8.09097 29.0212L18.541 39.454L20.2425 41.1513C20.3757 41.2845 20.5949 41.2845 20.7281 41.1513L38.2293 23.6802C38.3625 23.547 38.3625 23.3279 38.2293 23.1947Z" fill="white"/>
</svg>
