<svg width="41" height="20" viewBox="0 0 39 53" fill="none" xmlns="http://www.w3.org/2000/svg">
<path d="M32 35.3086V3.60239C32 2.91219 31.7893 2.25026 31.4142 1.76222C31.0391 1.27418 30.5304 1 30 1H3C2.46957 1 1.96086 1.27418 1.58579 1.76222C1.21071 2.25026 1 2.91219 1 3.60239V49.1442C1 49.8344 1.21071 50.4963 1.58579 50.9843C1.96086 51.4724 2.46957 51.7465 3 51.7465H30C30.5304 51.7465 31.0391 51.4724 31.4142 50.9843C31.7893 50.4963 32 49.8344 32 49.1442V47.2327" stroke="black" stroke-width="2" stroke-linecap="round" stroke-linejoin="round"/>
<path d="M29.634 44.1475L13.788 23.4781V17.5902H18.42L34.205 38.1855M5.5 8.80713H27.5M5.5 17.5902H13.788M25.152 26.3732H27.5M5.5 26.3732H16.008M5.5 35.1563H22.489M5.5 43.9394H27.5M36.815 44.5704C37.1181 44.1746 37.2882 43.6386 37.2882 43.0799C37.2882 42.5212 37.1181 41.9852 36.815 41.5894L34.205 38.1855L29.635 44.1475L32.245 47.5515C32.3949 47.7468 32.5729 47.9017 32.7689 48.0074C32.9648 48.1131 33.1749 48.1675 33.387 48.1675C33.5991 48.1675 33.8092 48.1131 34.0051 48.0074C34.2011 47.9017 34.3791 47.7468 34.529 47.5515L36.815 44.5704Z" stroke="black" stroke-width="2" stroke-linecap="round" stroke-linejoin="round"/>
</svg>
