<svg width="41" height="16" viewBox="0 0 39 51" fill="none" xmlns="http://www.w3.org/2000/svg">
<path d="M29.25 33.3024H31.6875V41.2316H29.25V33.3024ZM24.375 25.3733H26.8125V41.2316H24.375V25.3733ZM13.4062 41.2316C11.7907 41.2291 10.2418 40.3929 9.09946 38.9064C7.95707 37.42 7.31444 35.4046 7.3125 33.3024H9.75C9.75 34.2434 9.96444 35.1632 10.3662 35.9456C10.7679 36.7279 11.339 37.3377 12.0071 37.6978C12.6752 38.0579 13.4103 38.1521 14.1195 37.9685C14.8288 37.7849 15.4803 37.3318 15.9916 36.6665C16.5029 36.0011 16.8512 35.1534 16.9922 34.2306C17.1333 33.3077 17.0609 32.3511 16.7842 31.4818C16.5075 30.6125 16.0388 29.8695 15.4376 29.3467C14.8363 28.824 14.1294 28.545 13.4062 28.545V25.3733C15.0224 25.3733 16.5724 26.2087 17.7152 27.6957C18.858 29.1827 19.5 31.1995 19.5 33.3024C19.5 35.4054 18.858 37.4222 17.7152 38.9092C16.5724 40.3962 15.0224 41.2316 13.4062 41.2316Z" fill="black"/>
<path d="M34.125 3.17163H4.875C4.22873 3.17247 3.60912 3.5069 3.15214 4.10152C2.69516 4.69614 2.43815 5.50237 2.4375 6.34329V44.4032C2.43815 45.2441 2.69516 46.0504 3.15214 46.645C3.60912 47.2396 4.22873 47.574 4.875 47.5749H34.125C34.7712 47.5736 35.3906 47.239 35.8475 46.6445C36.3044 46.05 36.5615 45.244 36.5625 44.4032V6.34329C36.5619 5.50237 36.3048 4.69614 35.8479 4.10152C35.3909 3.5069 34.7713 3.17247 34.125 3.17163ZM34.125 17.4441H17.0625V6.34329H34.125V17.4441ZM14.625 6.34329V17.4441H4.875V6.34329H14.625ZM4.875 44.4032V20.6158H34.125L34.1274 44.4032H4.875Z" fill="black"/>
</svg>
