<svg width="24" height="31" viewBox="0 0 24 31" fill="none" xmlns="http://www.w3.org/2000/svg">
<path d="M12.2646 5.45695e-05C8.09602 -0.014364 4.42769 2.8297 2.33111 7.12644C2.23817 7.31748 2.34204 7.56981 2.51425 7.56981H4.43589C4.5671 7.56981 4.6901 7.49411 4.77211 7.36074C4.96345 7.05435 5.16846 6.75876 5.38441 6.4776C6.27552 5.30609 7.31151 4.3833 8.46504 3.74168C9.65683 3.07842 10.9252 2.73958 12.2345 2.73958C13.5438 2.73958 14.8122 3.07482 16.004 3.74168C17.1575 4.3833 18.1935 5.30609 19.0846 6.4776C19.9757 7.64911 20.6727 9.01527 21.162 10.5328C21.6677 12.1045 21.9219 13.7734 21.9219 15.5C21.9219 17.2267 21.665 18.8956 21.162 20.4672C20.6755 21.9848 19.9757 23.3509 19.0846 24.5225C18.1935 25.694 17.1575 26.6168 16.004 27.2584C14.8112 27.9227 13.5293 28.2635 12.2345 28.2605C10.9252 28.2605 9.65683 27.9216 8.46504 27.2584C7.31377 26.6174 6.26761 25.6883 5.38441 24.5225C5.16846 24.2377 4.96618 23.9421 4.77211 23.6393C4.6901 23.5059 4.56436 23.4302 4.43589 23.4302H2.51425C2.34204 23.4302 2.23544 23.6826 2.33111 23.8736C4.42495 28.1595 8.07688 31 12.2345 31C18.691 31 23.9338 24.1476 23.9994 15.6586C24.065 7.03272 18.814 0.0216824 12.2646 5.45695e-05ZM8.8018 19.5372V16.7977H0.218678C0.0984052 16.7977 0 16.6679 0 16.5093V14.4907C0 14.3321 0.0984052 14.2024 0.218678 14.2024H8.8018V11.4628C8.8018 11.2213 9.01501 11.0843 9.15715 11.2357L13.036 15.2729C13.0621 15.2999 13.0832 15.3344 13.0978 15.3737C13.1123 15.4131 13.1199 15.4563 13.1199 15.5C13.1199 15.5438 13.1123 15.587 13.0978 15.6263C13.0832 15.6657 13.0621 15.7001 13.036 15.7271L9.15715 19.7643C9.01501 19.9121 8.8018 19.7787 8.8018 19.5372Z" fill="#7D2DE2"/>
</svg>
