<svg width="41" height="12" viewBox="0 0 58 59" fill="none" xmlns="http://www.w3.org/2000/svg">
<path d="M23.7696 10.7798L20.4493 14.2706H7.53963C7.25787 14.2706 6.97886 14.3275 6.71854 14.4381C6.45822 14.5487 6.22169 14.7107 6.02245 14.915C5.82321 15.1194 5.66517 15.3619 5.55734 15.6288C5.44951 15.8958 5.39401 16.1819 5.39401 16.4708V45.0121C5.394 45.5967 5.61968 46.1577 6.02172 46.5722C6.42376 46.9868 6.96948 47.2213 7.53963 47.2246H49.9965C50.5667 47.2213 51.1124 46.9868 51.5144 46.5722C51.9165 46.1577 52.1422 45.5967 52.1421 45.0121V16.4708C52.1421 16.1819 52.0866 15.8958 51.9788 15.6288C51.871 15.3619 51.7129 15.1194 51.5137 14.915C51.3145 14.7107 51.0779 14.5487 50.8176 14.4381C50.5573 14.3275 50.2783 14.2706 49.9965 14.2706H37.0868L33.7665 10.7798H23.7696ZM46.4604 17.8352C47.0454 17.8352 47.6064 18.0735 48.02 18.4976C48.4336 18.9218 48.666 19.497 48.666 20.0969C48.666 20.6967 48.4336 21.272 48.02 21.6961C47.6064 22.1203 47.0454 22.3585 46.4604 22.3585C45.8755 22.3585 45.3145 22.1203 44.9009 21.6961C44.4873 21.272 44.2549 20.6967 44.2549 20.0969C44.2549 19.497 44.4873 18.9218 44.9009 18.4976C45.3145 18.0735 45.8755 17.8352 46.4604 17.8352ZM28.7681 21.7685C30.7856 21.7685 32.7578 22.382 34.4353 23.5314C36.1128 24.6808 37.4202 26.3144 38.1923 28.2258C38.9643 30.1371 39.1664 32.2403 38.7728 34.2694C38.3792 36.2985 37.4076 38.1623 35.981 39.6252C34.5545 41.0881 32.7369 42.0844 30.7581 42.488C28.7794 42.8916 26.7284 42.6844 24.8644 41.8927C23.0005 41.101 21.4074 39.7603 20.2865 38.0401C19.1657 36.32 18.5674 34.2976 18.5674 32.2287C18.5674 29.4545 19.6421 26.7939 21.5551 24.8323C23.4681 22.8706 26.0627 21.7685 28.7681 21.7685V21.7685Z" stroke="black" stroke-width="3" stroke-linecap="round" stroke-linejoin="round"/>
</svg>
