<svg width="41" height="23" viewBox="0 0 44 44" fill="none" xmlns="http://www.w3.org/2000/svg">
<path d="M20.7625 33.9583L37.0133 17.7032C37.0863 17.6302 37.1207 17.5314 37.1121 17.4325L36.0164 4.48176C35.9863 4.14661 35.7242 3.8845 35.3891 3.85442L22.4383 2.76301C22.3395 2.75442 22.2363 2.78879 22.1676 2.86184L5.91682 19.1126C5.85284 19.1772 5.81696 19.2645 5.81696 19.3554C5.81696 19.4463 5.85284 19.5336 5.91682 19.5982L20.277 33.9583C20.4102 34.0958 20.6293 34.0958 20.7625 33.9583ZM23.4524 5.95559L33.1031 6.772L33.9196 16.4228L20.5176 29.8204L10.0504 19.3575L23.4524 5.95559ZM26.0374 13.9577C26.2289 14.1492 26.4563 14.3011 26.7065 14.4047C26.9568 14.5084 27.225 14.5617 27.4959 14.5617C27.7667 14.5616 28.0349 14.5083 28.2852 14.4046C28.5354 14.3009 28.7628 14.149 28.9543 13.9574C29.1458 13.7659 29.2977 13.5385 29.4014 13.2883C29.505 13.038 29.5583 12.7698 29.5583 12.4989C29.5583 12.2281 29.5049 11.9599 29.4012 11.7096C29.2976 11.4594 29.1456 11.232 28.9541 11.0405C28.7625 10.849 28.5352 10.6971 28.2849 10.5934C28.0346 10.4898 27.7664 10.4365 27.4956 10.4365C27.2247 10.4365 26.9565 10.4899 26.7063 10.5936C26.456 10.6972 26.2287 10.8492 26.0371 11.0407C25.8456 11.2323 25.6937 11.4597 25.5901 11.7099C25.4865 11.9602 25.4331 12.2284 25.4331 12.4992C25.4332 12.7701 25.4865 13.0383 25.5902 13.2885C25.6939 13.5388 25.8458 13.7661 26.0374 13.9577ZM38.2293 23.1947L36.5278 21.4974C36.4631 21.4334 36.3759 21.3975 36.285 21.3975C36.1941 21.3975 36.1068 21.4334 36.0422 21.4974L20.4875 37.022L10.2781 26.8384C10.2135 26.7744 10.1263 26.7385 10.0354 26.7385C9.94445 26.7385 9.8572 26.7744 9.7926 26.8384L8.09103 28.5357C8.02706 28.6003 7.99117 28.6875 7.99117 28.7784C7.99117 28.8694 8.02706 28.9566 8.09103 29.0212L18.541 39.454L20.2426 41.1513C20.3758 41.2845 20.5949 41.2845 20.7281 41.1513L38.2293 23.6802C38.3625 23.547 38.3625 23.3279 38.2293 23.1947Z" fill="black"/>
</svg>
