<svg width="28" height="28" viewBox="0 0 28 28" fill="none" xmlns="http://www.w3.org/2000/svg">
<path d="M14 25.6666C17.2217 25.6666 20.1383 24.3607 22.2496 22.2495C24.3609 20.1382 25.6667 17.2216 25.6667 13.9999C25.6667 10.7783 24.3609 7.86162 22.2496 5.75034C20.1383 3.63909 17.2217 2.33325 14 2.33325C10.7784 2.33325 7.86174 3.63909 5.75046 5.75034C3.63921 7.86162 2.33337 10.7783 2.33337 13.9999C2.33337 17.2216 3.63921 20.1382 5.75046 22.2495C7.86174 24.3607 10.7784 25.6666 14 25.6666Z" fill="#F5F5F5" stroke="#E3E74B" stroke-width="2" stroke-linejoin="round"/>
<path d="M10.5003 11.5561C10.4985 11.5993 10.5053 11.6424 10.5202 11.6828C10.5351 11.7231 10.5578 11.7599 10.587 11.7908C10.6161 11.8218 10.651 11.8462 10.6896 11.8626C10.7282 11.8791 10.7696 11.8871 10.8113 11.8864H11.8762C12.0543 11.8864 12.1963 11.7353 12.2196 11.5521C12.3357 10.6751 12.9166 10.0361 13.9517 10.0361C14.8372 10.0361 15.6478 10.4947 15.6478 11.5976C15.6478 12.4465 15.165 12.8369 14.4022 13.4305C13.5335 14.0842 12.8456 14.8476 12.8946 16.0869L12.8985 16.377C12.8998 16.4647 12.9344 16.5484 12.9948 16.6099C13.0552 16.6714 13.1365 16.7059 13.2212 16.7059H14.268C14.3535 16.7059 14.4356 16.6707 14.4961 16.608C14.5567 16.5453 14.5907 16.4603 14.5907 16.3717V16.2313C14.5907 15.2714 14.943 14.992 15.8943 14.2447C16.6804 13.6257 17.5 12.9385 17.5 11.496C17.5 9.47594 15.853 8.5 14.0498 8.5C12.4145 8.5 10.6229 9.28877 10.5003 11.5561ZM12.51 19.2607C12.51 19.9733 13.0585 20.5 13.8136 20.5C14.5997 20.5 15.1405 19.9733 15.1405 19.2607C15.1405 18.5227 14.5984 18.004 13.8123 18.004C13.0585 18.004 12.51 18.5227 12.51 19.2607Z" fill="#E3E74B"/>
</svg>
