<svg width="120" height="120" viewBox="0 0 120 120" fill="none" xmlns="http://www.w3.org/2000/svg">
<path d="M82.3125 68.625H68.625V64.0625H82.3125V68.625ZM91.4375 86.875H77.75V82.3125H91.4375V86.875ZM86.875 77.75H73.1875V73.1875H86.875V77.75Z" fill="#FFE600"/>
<path d="M61.7881 68.625C61.772 66.7001 61.2586 64.8121 60.2977 63.1441C59.3368 61.4761 57.9611 60.0849 56.304 59.1053L73.1875 29.8438L69.2409 27.5625L51.9559 57.5062C49.8346 57.0323 47.6283 57.0978 45.5388 57.6968C43.4493 58.2958 41.5434 59.4091 39.9953 60.9349C31.4543 69.1725 32.1159 88.4308 32.1478 89.2475C32.1714 89.8366 32.4221 90.3936 32.8474 90.8019C33.2727 91.2102 33.8395 91.438 34.4291 91.4375H68.6273C69.1061 91.4375 69.5727 91.2869 69.9612 91.0069C70.3496 90.7269 70.6401 90.3319 70.7915 89.8776C70.9429 89.4234 70.9475 88.9331 70.8048 88.4761C70.662 88.019 70.3791 87.6185 69.996 87.3313C61.9204 81.2723 61.7881 68.7482 61.7881 68.625ZM50.2153 61.7744C52.0412 61.7945 53.789 62.5177 55.0951 63.7937C56.4013 65.0697 57.1652 66.8001 57.2279 68.625C57.2279 68.7117 57.2324 69.0995 57.2667 69.6949L43.8073 63.7089C44.6939 62.9778 45.717 62.4303 46.8171 62.0982C47.9172 61.7661 49.0723 61.656 50.2153 61.7744ZM58.2453 86.875C56.4219 85.0183 55.2596 82.6136 54.9375 80.0312H50.375C50.5384 82.4591 51.2968 84.8095 52.5833 86.875H47.512C46.5739 83.9144 46.0031 80.8498 45.8125 77.75H41.25C41.3971 80.8405 41.9063 83.9031 42.767 86.875H36.6875C36.7582 82.6866 37.3491 73.4339 40.8006 67.3635L57.9853 75.0057C58.8109 79.2928 60.5712 83.3454 63.1409 86.875H58.2453Z" fill="#FFE600"/>
<rect x="0.5" y="0.5" width="119" height="119" stroke="white"/>
</svg>
