<svg width="120" height="120" viewBox="0 0 120 120" fill="none" xmlns="http://www.w3.org/2000/svg">
<path d="M60 32.5C60.9946 32.5 61.9484 32.1049 62.6516 31.4017C63.3549 30.6984 63.75 29.7446 63.75 28.75C63.75 27.7554 63.3549 26.8016 62.6516 26.0983C61.9484 25.3951 60.9946 25 60 25C59.0054 25 58.0516 25.3951 57.3484 26.0983C56.6451 26.8016 56.25 27.7554 56.25 28.75C56.25 29.7446 56.6451 30.6984 57.3484 31.4017C58.0516 32.1049 59.0054 32.5 60 32.5Z" fill="#2844A8"/>
<path fill-rule="evenodd" clip-rule="evenodd" d="M59.54 15.0425L59.52 15.0475L59.4625 15.0575L59.255 15.0975L58.48 15.2525C57.815 15.3875 56.8675 15.5875 55.735 15.845C53.4725 16.36 50.435 17.1125 47.385 18.055C44.365 18.9875 41.2025 20.1475 38.75 21.505C37.53 22.18 36.36 22.9725 35.4675 23.905C34.58 24.8275 33.75 26.12 33.75 27.7425C33.75 32.105 34.975 35.3 36.27 37.4425C36.9075 38.4975 37.555 39.285 38.065 39.825C38.09 40.1125 38.1275 40.435 38.1975 40.785C38.45 42.1 39.0825 43.775 40.5325 45.4025C39.842 48.3382 39.8244 51.392 40.4809 54.3354C41.1374 57.2788 42.451 60.0357 44.3235 62.3997C46.196 64.7637 48.5789 66.6736 51.2938 67.9866C54.0088 69.2996 56.9855 69.9816 60.0012 69.9816C63.017 69.9816 65.9937 69.2996 68.7087 67.9866C71.4236 66.6736 73.8065 64.7637 75.679 62.3997C77.5515 60.0357 78.8651 57.2788 79.5216 54.3354C80.1781 51.392 80.1605 48.3382 79.47 45.4025C80.9175 43.775 81.55 42.1025 81.8025 40.785C81.8725 40.435 81.9125 40.1125 81.935 39.825C82.6159 39.0966 83.2176 38.2979 83.73 37.4425C85.0275 35.3 86.25 32.105 86.25 27.7425C86.25 26.12 85.42 24.8275 84.5325 23.905C83.64 22.9725 82.47 22.18 81.25 21.505C78.7975 20.1475 75.635 18.9875 72.6125 18.055C69.8582 17.2155 67.0738 16.4784 64.265 15.845C63.0953 15.5785 61.9218 15.3284 60.745 15.095L60.5375 15.0575L60.48 15.0475L60.46 15.0425L60 14.9575L59.54 15.0425ZM60 17.5L60.46 15.0425L60 17.5ZM59.54 15.0425L60 17.5L59.54 15.0425ZM60 46.25C65.5175 46.25 69.2225 45.535 71.7 44.605C73.7975 43.8175 75.02 42.8775 75.725 42.085C75.9825 41.7975 76.185 41.5175 76.345 41.25H43.655C43.815 41.5175 44.0175 41.8 44.2725 42.085C44.9825 42.8775 46.2025 43.8175 48.2975 44.605C50.7775 45.535 54.4825 46.25 60 46.25ZM78.43 36.25H41.57C41.1868 35.8176 40.8445 35.3506 40.5475 34.855C39.69 33.4375 38.76 31.145 38.75 27.795C38.8335 27.6345 38.9434 27.4892 39.075 27.365C39.48 26.9425 40.165 26.435 41.1725 25.88C43.1725 24.7725 45.9475 23.7325 48.8625 22.83C51.4956 22.0294 54.1574 21.3264 56.8425 20.7225C57.892 20.4837 58.9446 20.2586 60 20.0475C60.1425 20.0725 60.3175 20.11 60.52 20.15C61.155 20.28 62.065 20.475 63.1575 20.7225C65.3475 21.22 68.25 21.94 71.1375 22.8325C74.0525 23.7325 76.8275 24.7725 78.8275 25.88C79.835 26.435 80.52 26.9425 80.9275 27.365C81.1525 27.6025 81.2275 27.7425 81.25 27.795C81.24 31.145 80.31 33.4375 79.45 34.855C79.1544 35.3509 78.8129 35.818 78.43 36.25ZM45 50C45 49.55 45.02 49.105 45.0575 48.665C48.4025 50.2325 53.1925 51.25 60 51.25C65.8625 51.25 70.2225 50.5 73.455 49.2875C73.98 49.0925 74.475 48.8825 74.9425 48.6625C75.1195 50.6788 74.8867 52.71 74.2579 54.6339C73.6292 56.5578 72.6176 58.3346 71.284 59.8572C69.9505 61.3798 68.3226 62.6168 66.4984 63.4937C64.6742 64.3705 62.6914 64.8691 60.6693 64.9595C58.6473 65.0498 56.628 64.73 54.7328 64.0192C52.8377 63.3085 51.106 62.2216 49.642 60.8239C48.178 59.4263 47.012 57.7468 46.2143 55.8866C45.4165 54.0264 45.0035 52.024 45 50ZM38.7425 27.8175V27.81V27.8175Z" fill="#2844A8"/>
<path d="M82.5 85C84.1675 86.6675 87.5 88.3325 87.5 88.3325C87.5 88.3325 85.755 95 82.5 95C79.245 95 77.5 88.3325 77.5 88.3325C77.5 88.3325 80.8325 86.6675 82.5 85Z" fill="#2844A8"/>
<path fill-rule="evenodd" clip-rule="evenodd" d="M51.25 77.5C51.25 76.1739 51.7768 74.9021 52.7145 73.9645C53.6521 73.0268 54.9239 72.5 56.25 72.5H63.75C65.0761 72.5 66.3479 73.0268 67.2855 73.9645C68.2232 74.9021 68.75 76.1739 68.75 77.5V80.955C68.7499 81.7691 68.551 82.5708 68.1707 83.2905C67.7903 84.0103 67.24 84.6263 66.5675 85.085L66.85 86.5L75.43 76.0825C75.7192 75.7311 76.0988 75.4653 76.5279 75.3138C76.957 75.1622 77.4193 75.1307 77.865 75.2225C84.275 76.5525 90.8325 78.5675 95.8525 81.3325C100.707 84.0075 105 87.89 105 93.245V102.5C105 103.163 104.737 103.799 104.268 104.268C103.799 104.737 103.163 105 102.5 105H17.5C16.837 105 16.2011 104.737 15.7322 104.268C15.2634 103.799 15 103.163 15 102.5V93.245C15 87.92 19.375 84.0625 24.23 81.41C29.27 78.6525 35.83 76.6225 42.1625 75.275C42.6102 75.18 43.0755 75.2097 43.5075 75.3609C43.9395 75.5121 44.3218 75.779 44.6125 76.1325L53.1875 86.5475L53.4575 85.1025C52.7776 84.6447 52.2206 84.0268 51.8357 83.3031C51.4507 82.5794 51.2496 81.7722 51.25 80.9525V77.5ZM61.3 84.24L62.7475 91.4825L60 94.8175L57.34 91.5875L58.7075 84.205C58.8065 83.6716 58.7294 83.1204 58.4877 82.6347C58.2459 82.149 57.8528 81.7551 57.3675 81.5125L56.25 80.955V77.5H63.75V80.955L62.6325 81.515C62.1419 81.76 61.7455 82.1594 61.5043 82.6518C61.2631 83.1442 61.1904 83.7022 61.2975 84.24H61.3ZM62.2075 100L78.3175 80.4375C83.9675 81.7025 89.385 83.48 93.4375 85.7125C98.01 88.23 100 90.8325 100 93.245V100H62.21H62.2075ZM41.7225 80.4925L57.79 100H20V93.245C20 90.91 22 88.3275 26.6275 85.795C30.71 83.5625 36.1375 81.775 41.7275 80.4925H41.7225Z" fill="#2844A8"/>
<rect x="0.5" y="0.5" width="119" height="119" stroke="white"/>
</svg>
