<svg width="30" height="30" viewBox="0 0 30 30" fill="none" xmlns="http://www.w3.org/2000/svg">
<g clip-path="url(#clip0_31_168)">
<path d="M10.6463 15C10.6463 12.4169 12.8121 10.3222 15.4845 10.3222C18.1568 10.3222 20.3237 12.4169 20.3237 15C20.3237 17.5832 18.1568 19.6778 15.4845 19.6778C12.8121 19.6778 10.6463 17.5832 10.6463 15ZM8.0303 15C8.0303 18.9796 11.3675 22.2054 15.4845 22.2054C19.6014 22.2054 22.9386 18.9796 22.9386 15C22.9386 11.0205 19.6014 7.79464 15.4845 7.79464C11.3675 7.79464 8.0303 11.0205 8.0303 15ZM21.4917 7.50894C21.4913 8.43891 22.2709 9.19311 23.233 9.19348C24.1951 9.19386 24.9753 8.44026 24.9757 7.51029C24.9761 6.58031 24.1965 5.82611 23.2344 5.82574H23.2337C22.2721 5.82617 21.4925 6.57941 21.4917 7.50894ZM9.6197 26.422C8.20438 26.3596 7.43511 26.1318 6.92389 25.9392C6.24613 25.6842 5.76255 25.3804 5.25412 24.8896C4.74569 24.3988 4.43097 23.9318 4.16827 23.2767C3.96899 22.7828 3.73323 22.0389 3.6689 20.6709C3.59852 19.1917 3.58447 18.7474 3.58447 15.0001C3.58447 11.2529 3.59968 10.8098 3.6689 9.32943C3.73335 7.96134 3.97084 7.21898 4.16827 6.72358C4.43213 6.06844 4.74638 5.601 5.25412 5.10953C5.76186 4.61807 6.24497 4.31385 6.92389 4.05992C7.43488 3.86729 8.20438 3.6394 9.6197 3.57721C11.1499 3.50918 11.6095 3.4956 15.4845 3.4956C19.3594 3.4956 19.8195 3.51031 21.3509 3.57721C22.7663 3.63952 23.5343 3.86908 24.0468 4.05992C24.7245 4.31385 25.2081 4.61874 25.7165 5.10953C26.225 5.60033 26.5385 6.06844 26.8024 6.72358C27.0017 7.21752 27.2374 7.96134 27.3018 9.32943C27.3721 10.8098 27.3862 11.2529 27.3862 15.0001C27.3862 18.7474 27.3721 19.1905 27.3018 20.6709C27.2373 22.0389 27.0004 22.7825 26.8024 23.2767C26.5385 23.9318 26.2243 24.3993 25.7165 24.8896C25.2088 25.38 24.7245 25.6842 24.0468 25.9392C23.5358 26.1319 22.7663 26.3598 21.3509 26.422C19.8208 26.49 19.3611 26.5036 15.4845 26.5036C11.6078 26.5036 11.1494 26.49 9.6197 26.422ZM9.4995 1.05275C7.95411 1.12078 6.89811 1.35765 5.97589 1.70452C5.02081 2.06274 4.21229 2.54332 3.40434 3.32306C2.5964 4.1028 2.10051 4.88558 1.72993 5.80879C1.37108 6.70079 1.12603 7.72099 1.05566 9.21481C0.984118 10.711 0.967743 11.1893 0.967743 15C0.967743 18.8107 0.984118 19.2891 1.05566 20.7852C1.12603 22.2792 1.37108 23.2993 1.72993 24.1913C2.10051 25.1139 2.59652 25.8976 3.40434 26.677C4.21217 27.4564 5.02081 27.9363 5.97589 28.2955C6.89985 28.6424 7.95411 28.8793 9.4995 28.9473C11.0481 29.0153 11.5422 29.0323 15.4845 29.0323C19.4267 29.0323 19.9216 29.0165 21.4694 28.9473C23.0149 28.8793 24.0702 28.6424 24.993 28.2955C25.9475 27.9363 26.7566 27.4567 27.5646 26.677C28.3725 25.8973 28.8673 25.1139 29.239 24.1913C29.5978 23.2993 29.844 22.2791 29.9132 20.7852C29.9836 19.288 30 18.8107 30 15C30 11.1893 29.9836 10.711 29.9132 9.21481C29.8429 7.72088 29.5978 6.70023 29.239 5.80879C28.8673 4.88614 28.3712 4.10404 27.5646 3.32306C26.7579 2.54208 25.9475 2.06274 24.9942 1.70452C24.0702 1.35765 23.0148 1.11966 21.4706 1.05275C19.9227 0.984724 19.4279 0.967773 15.4856 0.967773C11.5433 0.967773 11.0481 0.983602 9.4995 1.05275Z" fill="url(#paint0_radial_31_168)"/>
</g>
<defs>
<radialGradient id="paint0_radial_31_168" cx="0" cy="0" r="1" gradientUnits="userSpaceOnUse" gradientTransform="translate(4.82501 29.1649) scale(37.9007 36.6373)">
<stop offset="0.09" stop-color="#FA8F21"/>
<stop offset="0.78" stop-color="#D82D7E"/>
</radialGradient>
<clipPath id="clip0_31_168">
<rect width="30" height="30" fill="white"/>
</clipPath>
</defs>
</svg>
