<svg width="29" height="29" viewBox="0 0 29 29" fill="none" xmlns="http://www.w3.org/2000/svg">
<path fill-rule="evenodd" clip-rule="evenodd" d="M1.20834 3.42917C1.20834 2.84015 1.44232 2.27525 1.85883 1.85875C2.27533 1.44224 2.84023 1.20825 3.42925 1.20825H25.5683C25.8602 1.20778 26.1494 1.26488 26.4192 1.37629C26.689 1.48771 26.9342 1.65124 27.1407 1.85754C27.3472 2.06383 27.511 2.30883 27.6227 2.57852C27.7344 2.8482 27.7918 3.13727 27.7917 3.42917V25.5683C27.792 25.8602 27.7347 26.1494 27.6232 26.4192C27.5116 26.689 27.348 26.9342 27.1416 27.1407C26.9352 27.3472 26.6901 27.511 26.4204 27.6226C26.1506 27.7343 25.8615 27.7917 25.5695 27.7916H3.42925C3.1375 27.7916 2.8486 27.7341 2.57907 27.6224C2.30953 27.5107 2.06465 27.347 1.8584 27.1407C1.65215 26.9343 1.48859 26.6893 1.37705 26.4197C1.26551 26.1501 1.20818 25.8612 1.20834 25.5695V3.42917ZM11.7305 11.3438H15.3301V13.1514C15.8497 12.1123 17.1789 11.177 19.1763 11.177C23.0055 11.177 23.9129 13.2469 23.9129 17.0447V24.0796H20.0378V17.9098C20.0378 15.7469 19.5182 14.5265 18.1987 14.5265C16.3681 14.5265 15.6068 15.8424 15.6068 17.9098V24.0796H11.7305V11.3438ZM5.08467 23.914H8.961V11.177H5.08467V23.9128V23.914ZM9.51563 7.02275C9.52294 7.35465 9.46388 7.68466 9.34192 7.99343C9.21996 8.30219 9.03755 8.58348 8.80541 8.82079C8.57326 9.05811 8.29606 9.24666 7.99005 9.37539C7.68405 9.50412 7.35542 9.57043 7.02344 9.57043C6.69146 9.57043 6.36283 9.50412 6.05683 9.37539C5.75083 9.24666 5.47362 9.05811 5.24147 8.82079C5.00933 8.58348 4.82692 8.30219 4.70496 7.99343C4.583 7.68466 4.52394 7.35465 4.53125 7.02275C4.5456 6.37129 4.81447 5.75134 5.28028 5.29567C5.74609 4.84 6.37182 4.58484 7.02344 4.58484C7.67507 4.58484 8.30079 4.84 8.7666 5.29567C9.23241 5.75134 9.50128 6.37129 9.51563 7.02275Z" fill="#0E76A8"/>
</svg>
