<svg width="41" height="24" viewBox="0 0 52 68" fill="none" xmlns="http://www.w3.org/2000/svg">
<path d="M46.2222 9.39746H5.77778C5.0116 9.39746 4.2768 9.7935 3.73503 10.4984C3.19325 11.2034 2.88889 12.1595 2.88889 13.1565V54.5055C2.88889 55.5024 3.19325 56.4586 3.73503 57.1635C4.2768 57.8685 5.0116 58.2645 5.77778 58.2645H46.2222C46.9884 58.2645 47.7232 57.8685 48.265 57.1635C48.8067 56.4586 49.1111 55.5024 49.1111 54.5055V13.1565C49.1111 12.1595 48.8067 11.2034 48.265 10.4984C47.7232 9.7935 46.9884 9.39746 46.2222 9.39746ZM5.77778 54.5055V13.1565H46.2222V54.5055H5.77778Z" fill="black"/>
<path d="M22.5622 28.6099L13.8696 45.048L8.01667 38.3118L9.54778 36.0602L13.4449 40.5447L22.5824 23.2683L32.3324 42.0915L42.0882 25.317L43.9313 27.1326L32.2227 47.2601L22.5622 28.6099Z" fill="black"/>
</svg>
