<svg width="19" height="19" viewBox="0 0 19 19" fill="none" xmlns="http://www.w3.org/2000/svg">
<path d="M16.8773 15.855L12.0587 11.0363C12.8064 10.0696 13.2109 8.8877 13.2109 7.64453C13.2109 6.15645 12.6302 4.76113 11.58 3.70908C10.5298 2.65703 9.13076 2.07812 7.64453 2.07812C6.1583 2.07812 4.75928 2.65889 3.70908 3.70908C2.65703 4.75928 2.07812 6.15645 2.07812 7.64453C2.07812 9.13076 2.65889 10.5298 3.70908 11.58C4.75928 12.632 6.15645 13.2109 7.64453 13.2109C8.8877 13.2109 10.0678 12.8064 11.0345 12.0605L15.8531 16.8773C15.8673 16.8915 15.884 16.9027 15.9025 16.9103C15.921 16.918 15.9408 16.9219 15.9607 16.9219C15.9807 16.9219 16.0005 16.918 16.019 16.9103C16.0375 16.9027 16.0542 16.8915 16.0684 16.8773L16.8773 16.0702C16.8915 16.0561 16.9027 16.0393 16.9103 16.0208C16.918 16.0024 16.9219 15.9826 16.9219 15.9626C16.9219 15.9426 16.918 15.9228 16.9103 15.9044C16.9027 15.8859 16.8915 15.8691 16.8773 15.855ZM10.5836 10.5836C9.79688 11.3685 8.7541 11.8008 7.64453 11.8008C6.53496 11.8008 5.49219 11.3685 4.70547 10.5836C3.92061 9.79688 3.48828 8.7541 3.48828 7.64453C3.48828 6.53496 3.92061 5.49033 4.70547 4.70547C5.49219 3.92061 6.53496 3.48828 7.64453 3.48828C8.7541 3.48828 9.79873 3.91875 10.5836 4.70547C11.3685 5.49219 11.8008 6.53496 11.8008 7.64453C11.8008 8.7541 11.3685 9.79873 10.5836 10.5836Z" fill="white"/>
</svg>
