<svg width="28" height="28" viewBox="0 0 28 28" fill="none" xmlns="http://www.w3.org/2000/svg">
<path d="M2.3335 6.99998H25.6668M11.6668 12.8333V18.6666M16.3335 12.8333V18.6666M4.66683 6.99998H23.3335L21.4902 23.59C21.427 24.1609 21.1554 24.6885 20.7275 25.0717C20.2995 25.4548 19.7453 25.6667 19.1708 25.6666H8.8295C8.25507 25.6667 7.70082 25.4548 7.27287 25.0717C6.84492 24.6885 6.57335 24.1609 6.51016 23.59L4.66683 6.99998ZM8.56933 3.67148C8.75804 3.27128 9.05665 2.93298 9.43034 2.69604C9.80402 2.45911 10.2374 2.33331 10.6798 2.33331H17.3205C17.7632 2.33309 18.1968 2.45878 18.5707 2.69573C18.9446 2.93268 19.2434 3.2711 19.4322 3.67148L21.0002 6.99998H7.00016L8.56933 3.67148V3.67148Z" stroke="white" stroke-width="2" stroke-linecap="round" stroke-linejoin="round"/>
</svg>
