<svg width="45" height="45" viewBox="0 0 45 45" fill="none" xmlns="http://www.w3.org/2000/svg">
<path d="M22.5 3.75C20.6458 3.75 18.8332 4.29983 17.2915 5.32997C15.7498 6.36011 14.5482 7.82429 13.8386 9.53734C13.1291 11.2504 12.9434 13.1354 13.3051 14.954C13.6669 16.7725 14.5598 18.443 15.8709 19.7541C17.182 21.0652 18.8525 21.9581 20.671 22.3199C22.4896 22.6816 24.3746 22.4959 26.0877 21.7864C27.8007 21.0768 29.2649 19.8752 30.295 18.3335C31.3252 16.7918 31.875 14.9792 31.875 13.125C31.875 10.6386 30.8873 8.25403 29.1291 6.49587C27.371 4.73772 24.9864 3.75 22.5 3.75ZM22.5 18.75C21.3875 18.75 20.2999 18.4201 19.3749 17.802C18.4499 17.1839 17.7289 16.3054 17.3032 15.2776C16.8774 14.2498 16.766 13.1188 16.9831 12.0276C17.2001 10.9365 17.7359 9.9342 18.5225 9.14752C19.3092 8.36085 20.3115 7.82513 21.4026 7.60808C22.4938 7.39104 23.6248 7.50243 24.6526 7.92818C25.6804 8.35392 26.5589 9.07489 27.177 9.99992C27.7951 10.9249 28.125 12.0125 28.125 13.125C28.125 14.6168 27.5324 16.0476 26.4775 17.1025C25.4226 18.1574 23.9918 18.75 22.5 18.75ZM39.375 39.375V37.5C39.375 34.019 37.9922 30.6806 35.5308 28.2192C33.0694 25.7578 29.731 24.375 26.25 24.375H18.75C15.269 24.375 11.9306 25.7578 9.46922 28.2192C7.00781 30.6806 5.625 34.019 5.625 37.5V39.375H9.375V37.5C9.375 35.0136 10.3627 32.629 12.1209 30.8709C13.879 29.1127 16.2636 28.125 18.75 28.125H26.25C28.7364 28.125 31.121 29.1127 32.8791 30.8709C34.6373 32.629 35.625 35.0136 35.625 37.5V39.375H39.375Z" fill="white"/>
</svg>
