<svg width="41" height="36" viewBox="0 0 42 53" fill="none" xmlns="http://www.w3.org/2000/svg">
<path d="M30.8696 2H11.0733C6.06225 2 2 7.28577 2 13.8061V39.5649C2 46.0852 6.06225 51.371 11.0733 51.371H30.8696C35.8806 51.371 39.9428 46.0852 39.9428 39.5649V13.8061C39.9428 7.28577 35.8806 2 30.8696 2Z" fill="#F9FBFF" stroke="black" stroke-width="3"/>
<path fill-rule="evenodd" clip-rule="evenodd" d="M16.5 33.554C16.5 33.2952 16.579 33.047 16.7197 32.8639C16.8603 32.6809 17.0511 32.5781 17.25 32.5781H30.75C30.9489 32.5781 31.1397 32.6809 31.2803 32.8639C31.421 33.047 31.5 33.2952 31.5 33.554C31.5 33.8128 31.421 34.0611 31.2803 34.2441C31.1397 34.4271 30.9489 34.5299 30.75 34.5299H17.25C17.0511 34.5299 16.8603 34.4271 16.7197 34.2441C16.579 34.0611 16.5 33.8128 16.5 33.554ZM16.5 25.7468C16.5 25.488 16.579 25.2398 16.7197 25.0568C16.8603 24.8738 17.0511 24.7709 17.25 24.7709H30.75C30.9489 24.7709 31.1397 24.8738 31.2803 25.0568C31.421 25.2398 31.5 25.488 31.5 25.7468C31.5 26.0057 31.421 26.2539 31.2803 26.4369C31.1397 26.6199 30.9489 26.7227 30.75 26.7227H17.25C17.0511 26.7227 16.8603 26.6199 16.7197 26.4369C16.579 26.2539 16.5 26.0057 16.5 25.7468ZM16.5 17.9397C16.5 17.6809 16.579 17.4326 16.7197 17.2496C16.8603 17.0666 17.0511 16.9638 17.25 16.9638H30.75C30.9489 16.9638 31.1397 17.0666 31.2803 17.2496C31.421 17.4326 31.5 17.6809 31.5 17.9397C31.5 18.1985 31.421 18.4467 31.2803 18.6297C31.1397 18.8128 30.9489 18.9156 30.75 18.9156H17.25C17.0511 18.9156 16.8603 18.8128 16.7197 18.6297C16.579 18.4467 16.5 18.1985 16.5 17.9397ZM14.781 15.297C14.8508 15.3876 14.9063 15.4953 14.9441 15.6139C14.9819 15.7324 15.0013 15.8595 15.0013 15.9879C15.0013 16.1163 14.9819 16.2434 14.9441 16.3619C14.9063 16.4805 14.8508 16.5882 14.781 16.6788L12.531 19.6065C12.4613 19.6974 12.3786 19.7695 12.2875 19.8187C12.1963 19.8679 12.0987 19.8932 12 19.8932C11.9014 19.8932 11.8037 19.8679 11.7126 19.8187C11.6214 19.7695 11.5387 19.6974 11.469 19.6065L10.719 18.6306C10.6493 18.5399 10.594 18.4322 10.5562 18.3136C10.5185 18.1951 10.4991 18.068 10.4991 17.9397C10.4991 17.8114 10.5185 17.6843 10.5562 17.5658C10.594 17.4472 10.6493 17.3395 10.719 17.2487C10.7887 17.158 10.8715 17.086 10.9626 17.0369C11.0537 16.9878 11.1514 16.9626 11.25 16.9626C11.3486 16.9626 11.4463 16.9878 11.5374 17.0369C11.6285 17.086 11.7113 17.158 11.781 17.2487L12 17.5357L13.719 15.297C13.7887 15.2061 13.8714 15.134 13.9626 15.0848C14.0537 15.0356 14.1514 15.0103 14.25 15.0103C14.3487 15.0103 14.4463 15.0356 14.5375 15.0848C14.6286 15.134 14.7113 15.2061 14.781 15.297ZM14.781 23.1041C14.8508 23.1948 14.9063 23.3025 14.9441 23.421C14.9819 23.5396 15.0013 23.6667 15.0013 23.7951C15.0013 23.9234 14.9819 24.0505 14.9441 24.1691C14.9063 24.2876 14.8508 24.3953 14.781 24.486L12.531 27.4137C12.4613 27.5046 12.3786 27.5767 12.2875 27.6259C12.1963 27.6751 12.0987 27.7004 12 27.7004C11.9014 27.7004 11.8037 27.6751 11.7126 27.6259C11.6214 27.5767 11.5387 27.5046 11.469 27.4137L10.719 26.4378C10.5782 26.2545 10.4991 26.006 10.4991 25.7468C10.4991 25.4877 10.5782 25.2392 10.719 25.0559C10.8598 24.8727 11.0508 24.7697 11.25 24.7697C11.4492 24.7697 11.6402 24.8727 11.781 25.0559L12 25.3428L13.719 23.1041C13.7887 23.0132 13.8714 22.9411 13.9626 22.8919C14.0537 22.8427 14.1514 22.8174 14.25 22.8174C14.3487 22.8174 14.4463 22.8427 14.5375 22.8919C14.6286 22.9411 14.7113 23.0132 14.781 23.1041ZM14.781 30.9113C14.8508 31.0019 14.9063 31.1096 14.9441 31.2282C14.9819 31.3467 15.0013 31.4739 15.0013 31.6022C15.0013 31.7306 14.9819 31.8577 14.9441 31.9762C14.9063 32.0948 14.8508 32.2025 14.781 32.2931L12.531 35.2208C12.4613 35.3117 12.3786 35.3838 12.2875 35.433C12.1963 35.4822 12.0987 35.5075 12 35.5075C11.9014 35.5075 11.8037 35.4822 11.7126 35.433C11.6214 35.3838 11.5387 35.3117 11.469 35.2208L10.719 34.2449C10.5782 34.0617 10.4991 33.8132 10.4991 33.554C10.4991 33.2949 10.5782 33.0463 10.719 32.8631C10.8598 32.6798 11.0508 32.5769 11.25 32.5769C11.4492 32.5769 11.6402 32.6798 11.781 32.8631L12 33.15L13.719 30.9113C13.7887 30.8204 13.8714 30.7483 13.9626 30.6991C14.0537 30.6499 14.1514 30.6246 14.25 30.6246C14.3487 30.6246 14.4463 30.6499 14.5375 30.6991C14.6286 30.7483 14.7113 30.8204 14.781 30.9113Z" fill="black"/>
</svg>
