<svg width="9" height="9" viewBox="0 0 9 9" fill="none" xmlns="http://www.w3.org/2000/svg">
<path d="M6.65108 5.96689V0.660513C6.65108 0.545002 6.6158 0.434221 6.55304 0.352542C6.49027 0.270862 6.40513 0.224976 6.31634 0.224976H1.79761C1.70884 0.224976 1.6237 0.270862 1.56093 0.352542C1.49815 0.434221 1.46289 0.545002 1.46289 0.660513V8.28241C1.46289 8.39792 1.49815 8.50871 1.56093 8.59039C1.6237 8.67206 1.70884 8.71794 1.79761 8.71794H6.31634C6.40513 8.71794 6.49027 8.67206 6.55304 8.59039C6.6158 8.50871 6.65108 8.39792 6.65108 8.28241V7.9625" stroke="#7D2DE2" stroke-width="0.45" stroke-linecap="round" stroke-linejoin="round"/>
<path d="M6.25489 7.44621L3.60291 3.98697V3.00156H4.37812L7.01991 6.4484M2.21582 1.53162H5.89775M2.21582 3.00156H3.60291M5.50479 4.47148H5.89775M2.21582 4.47148H3.97445M2.21582 5.94143H5.05911M2.21582 7.41138H5.89775M7.45671 7.51699C7.50744 7.45073 7.53591 7.36104 7.53591 7.26753C7.53591 7.17402 7.50744 7.08432 7.45671 7.01808L7.01991 6.4484L6.25507 7.44621L6.69189 8.01588C6.71697 8.04858 6.74676 8.0745 6.77955 8.0922C6.81235 8.10989 6.8475 8.119 6.883 8.119C6.91851 8.119 6.95365 8.10989 6.98646 8.0922C7.01924 8.0745 7.04905 8.04858 7.07414 8.01588L7.45671 7.51699Z" stroke="#7D2DE2" stroke-width="0.45" stroke-linecap="round" stroke-linejoin="round"/>
</svg>
