<svg width="35" height="37" viewBox="0 0 35 37" fill="none" xmlns="http://www.w3.org/2000/svg">
<path d="M17.5 0.75C15.6458 0.75 13.8332 1.29983 12.2915 2.32997C10.7498 3.36011 9.5482 4.82429 8.8386 6.53734C8.1291 8.2504 7.9434 10.1354 8.3051 11.954C8.6669 13.7725 9.5598 15.443 10.8709 16.7541C12.182 18.0652 13.8525 18.9581 15.671 19.3199C17.4896 19.6816 19.3746 19.4959 21.0877 18.7864C22.8007 18.0768 24.2649 16.8752 25.295 15.3335C26.3252 13.7918 26.875 11.9792 26.875 10.125C26.875 7.6386 25.8873 5.25403 24.1291 3.49587C22.371 1.73772 19.9864 0.75 17.5 0.75ZM17.5 15.75C16.3875 15.75 15.2999 15.4201 14.3749 14.802C13.4499 14.1839 12.7289 13.3054 12.3032 12.2776C11.8774 11.2498 11.766 10.1188 11.9831 9.0276C12.2001 7.9365 12.7359 6.9342 13.5225 6.14752C14.3092 5.36085 15.3115 4.82513 16.4026 4.60808C17.4938 4.39104 18.6248 4.50243 19.6526 4.92818C20.6804 5.35392 21.5589 6.07489 22.177 6.99992C22.7951 7.9249 23.125 9.0125 23.125 10.125C23.125 11.6168 22.5324 13.0476 21.4775 14.1025C20.4226 15.1574 18.9918 15.75 17.5 15.75ZM34.375 36.375V34.5C34.375 31.019 32.9922 27.6806 30.5308 25.2192C28.0694 22.7578 24.731 21.375 21.25 21.375H13.75C10.269 21.375 6.9306 22.7578 4.46922 25.2192C2.00781 27.6806 0.625 31.019 0.625 34.5V36.375H4.375V34.5C4.375 32.0136 5.3627 29.629 7.1209 27.8709C8.879 26.1127 11.2636 25.125 13.75 25.125H21.25C23.7364 25.125 26.121 26.1127 27.8791 27.8709C29.6373 29.629 30.625 32.0136 30.625 34.5V36.375H34.375Z" fill="#7D2DE2"/>
</svg>
