<svg width="10" height="10" viewBox="0 0 10 10" fill="none" xmlns="http://www.w3.org/2000/svg">
<path d="M6.81845 6.5625H7.27299V8.125H6.81845V6.5625ZM5.90936 5H6.3639V8.125H5.90936V5ZM3.8639 8.125C3.56263 8.1245 3.2738 7.95973 3.06077 7.6668C2.84774 7.37389 2.7279 6.97675 2.72754 6.5625H3.18208C3.18208 6.74791 3.22207 6.92918 3.29699 7.08334C3.37191 7.23752 3.4784 7.35768 3.60298 7.42864C3.72756 7.49959 3.86465 7.51816 3.99693 7.48198C4.12918 7.44582 4.25068 7.35652 4.34602 7.22541C4.44138 7.0943 4.50631 6.92725 4.53263 6.74539C4.55893 6.56355 4.54543 6.37505 4.49381 6.20373C4.44222 6.03243 4.35483 5.886 4.2427 5.783C4.13058 5.67998 3.99874 5.625 3.8639 5.625V5C4.16529 5 4.45433 5.16461 4.66743 5.45764C4.88054 5.75068 5.00027 6.14809 5.00027 6.5625C5.00027 6.97691 4.88054 7.37432 4.66743 7.66736C4.45433 7.96039 4.16529 8.125 3.8639 8.125Z" fill="#7D2DE2"/>
<path d="M7.72745 0.625H2.2729C2.15239 0.625166 2.03684 0.691066 1.95163 0.808241C1.86641 0.925416 1.81848 1.08429 1.81836 1.25V8.75C1.81848 8.9157 1.86641 9.07459 1.95163 9.19175C2.03684 9.30893 2.15239 9.37484 2.2729 9.375H7.72745C7.84795 9.37475 7.96345 9.30882 8.04865 9.19166C8.13386 9.07452 8.18181 8.91568 8.182 8.75V1.25C8.18188 1.08429 8.13395 0.925416 8.04872 0.808241C7.96352 0.691066 7.84797 0.625166 7.72745 0.625ZM7.72745 3.4375H4.54563V1.25H7.72745V3.4375ZM4.09109 1.25V3.4375H2.2729V1.25H4.09109ZM2.2729 8.75V4.0625H7.72745L7.72791 8.75H2.2729Z" fill="#7D2DE2"/>
</svg>
